<?xml version="1.0" encoding="UTF-8" standalone="no"?>
<!DOCTYPE svg PUBLIC "-//W3C//DTD SVG 1.1//EN"
 "http://www.w3.org/Graphics/SVG/1.1/DTD/svg11.dtd">
<!-- Generated by graphviz version 12.1.2 (20240928.0832)
 -->
<!-- Title: DecisionTree Pages: 1 -->
<svg width="450pt" height="217pt"
 viewBox="0.00 0.00 449.68 216.50" xmlns="http://www.w3.org/2000/svg" xmlns:xlink="http://www.w3.org/1999/xlink">
<g id="graph0" class="graph" transform="scale(1 1) rotate(0) translate(4 212.5)">
<title>DecisionTree</title>
<polygon fill="black" stroke="none" points="-4,4 -4,-212.5 445.68,-212.5 445.68,4 -4,4"/>
<!-- root -->
<g id="node1" class="node">
<title>root</title>
<polygon fill="black" stroke="white" stroke-width="2" points="250.09,-208.5 190.59,-208.5 190.59,-172.5 250.09,-172.5 250.09,-208.5"/>
<text text-anchor="middle" x="220.34" y="-186.2" font-family="Times,serif" font-size="14.00" fill="white">X₁ ≤ 5?</text>
</g>
<!-- left -->
<g id="node2" class="node">
<title>left</title>
<polygon fill="black" stroke="white" stroke-width="2" points="193.09,-122.25 133.59,-122.25 133.59,-86.25 193.09,-86.25 193.09,-122.25"/>
<text text-anchor="middle" x="163.34" y="-99.95" font-family="Times,serif" font-size="14.00" fill="white">X₂ ≤ 6?</text>
</g>
<!-- root&#45;&gt;left -->
<g id="edge1" class="edge">
<title>root&#45;&gt;left</title>
<path fill="none" stroke="yellow" stroke-width="3" d="M208.53,-172.04C201.19,-161.2 191.57,-146.99 183.1,-134.46"/>
<polygon fill="yellow" stroke="yellow" stroke-width="3" points="186.18,-132.77 177.68,-126.45 180.38,-136.69 186.18,-132.77"/>
<text text-anchor="middle" x="204.25" y="-141.2" font-family="Times,serif" font-size="14.00" fill="white">yes</text>
</g>
<!-- right -->
<g id="node3" class="node">
<title>right</title>
<polygon fill="black" stroke="white" stroke-width="2" points="308.09,-122.25 248.59,-122.25 248.59,-86.25 308.09,-86.25 308.09,-122.25"/>
<text text-anchor="middle" x="278.34" y="-99.95" font-family="Times,serif" font-size="14.00" fill="white">X₂ ≤ 4?</text>
</g>
<!-- root&#45;&gt;right -->
<g id="edge2" class="edge">
<title>root&#45;&gt;right</title>
<path fill="none" stroke="white" d="M232.36,-172.04C240.29,-160.52 250.84,-145.2 259.83,-132.13"/>
<polygon fill="white" stroke="white" points="262.69,-134.15 265.48,-123.93 256.92,-130.18 262.69,-134.15"/>
<text text-anchor="middle" x="259.56" y="-141.2" font-family="Times,serif" font-size="14.00" fill="white">no</text>
</g>
<!-- leaf1 -->
<g id="node4" class="node">
<title>leaf1</title>
<ellipse fill="black" stroke="white" stroke-width="2" cx="48.34" cy="-18" rx="48.34" ry="18"/>
<text text-anchor="middle" x="48.34" y="-11.82" font-family="Times,serif" font-size="14.00" fill="white">Leaf 1: 0.9</text>
</g>
<!-- left&#45;&gt;leaf1 -->
<g id="edge4" class="edge">
<title>left&#45;&gt;leaf1</title>
<path fill="none" stroke="yellow" stroke-width="3" d="M139.51,-85.79C122.56,-73.38 99.59,-56.55 80.95,-42.89"/>
<polygon fill="yellow" stroke="yellow" stroke-width="3" points="83.23,-40.22 73.09,-37.13 79.09,-45.87 83.23,-40.22"/>
<text text-anchor="middle" x="119.47" y="-54.95" font-family="Times,serif" font-size="14.00" fill="white">no</text>
</g>
<!-- leaf2 -->
<g id="node5" class="node">
<title>leaf2</title>
<ellipse fill="black" stroke="white" stroke-width="2" cx="163.34" cy="-18" rx="48.34" ry="18"/>
<text text-anchor="middle" x="163.34" y="-11.82" font-family="Times,serif" font-size="14.00" fill="white">Leaf 2: 0.2</text>
</g>
<!-- left&#45;&gt;leaf2 -->
<g id="edge3" class="edge">
<title>left&#45;&gt;leaf2</title>
<path fill="none" stroke="white" d="M163.34,-85.79C163.34,-74.84 163.34,-60.44 163.34,-47.82"/>
<polygon fill="white" stroke="white" points="166.84,-47.95 163.34,-37.95 159.84,-47.95 166.84,-47.95"/>
<text text-anchor="middle" x="172.34" y="-54.95" font-family="Times,serif" font-size="14.00" fill="white">yes</text>
</g>
<!-- leaf3 -->
<g id="node6" class="node">
<title>leaf3</title>
<ellipse fill="black" stroke="white" stroke-width="2" cx="278.34" cy="-18" rx="48.34" ry="18"/>
<text text-anchor="middle" x="278.34" y="-11.82" font-family="Times,serif" font-size="14.00" fill="white">Leaf 3: 0.8</text>
</g>
<!-- right&#45;&gt;leaf3 -->
<g id="edge5" class="edge">
<title>right&#45;&gt;leaf3</title>
<path fill="none" stroke="white" d="M278.34,-85.79C278.34,-74.84 278.34,-60.44 278.34,-47.82"/>
<polygon fill="white" stroke="white" points="281.84,-47.95 278.34,-37.95 274.84,-47.95 281.84,-47.95"/>
<text text-anchor="middle" x="287.34" y="-54.95" font-family="Times,serif" font-size="14.00" fill="white">yes</text>
</g>
<!-- leaf4 -->
<g id="node7" class="node">
<title>leaf4</title>
<ellipse fill="black" stroke="white" stroke-width="2" cx="393.34" cy="-18" rx="48.34" ry="18"/>
<text text-anchor="middle" x="393.34" y="-11.82" font-family="Times,serif" font-size="14.00" fill="white">Leaf 4: 0.6</text>
</g>
<!-- right&#45;&gt;leaf4 -->
<g id="edge6" class="edge">
<title>right&#45;&gt;leaf4</title>
<path fill="none" stroke="white" d="M302.17,-85.79C319.84,-72.85 344.06,-55.1 363.1,-41.15"/>
<polygon fill="white" stroke="white" points="365.03,-44.08 371.03,-35.35 360.89,-38.43 365.03,-44.08"/>
<text text-anchor="middle" x="349.47" y="-54.95" font-family="Times,serif" font-size="14.00" fill="white">no</text>
</g>
</g>
</svg>
