<?xml version="1.0" encoding="UTF-8" standalone="no"?>
<!DOCTYPE svg PUBLIC "-//W3C//DTD SVG 1.1//EN" "http://www.w3.org/Graphics/SVG/1.1/DTD/svg11.dtd">
<svg xmlns="http://www.w3.org/2000/svg" version="1.1" xmlns:xl="http://www.w3.org/1999/xlink" xmlns:dc="http://purl.org/dc/elements/1.1/" viewBox="14 127 1106 746" width="1106" height="746">
  <defs/>
  <g id="Canvas_1" fill="none" stroke-opacity="1" stroke-dasharray="none" fill-opacity="1" stroke="none">
    <title>Canvas 1</title>
    <g id="Canvas_1_Layer_1">
      <title>Layer 1</title>
      <g id="Graphic_44">
        <path d="M 667.3058 128.25 L 1110.44 128.25 C 1114.8583 128.25 1118.44 131.83172 1118.44 136.25 L 1118.44 863.25 C 1118.44 867.6683 1114.8583 871.25 1110.44 871.25 L 667.3058 871.25 C 662.88756 871.25 659.3058 867.6683 659.3058 863.25 L 659.3058 136.25 C 659.3058 131.83172 662.88756 128.25 667.3058 128.25 Z" fill="#c7dcf1"/>
        <path d="M 667.3058 128.25 L 1110.44 128.25 C 1114.8583 128.25 1118.44 131.83172 1118.44 136.25 L 1118.44 863.25 C 1118.44 867.6683 1114.8583 871.25 1110.44 871.25 L 667.3058 871.25 C 662.88756 871.25 659.3058 867.6683 659.3058 863.25 L 659.3058 136.25 C 659.3058 131.83172 662.88756 128.25 667.3058 128.25 Z" stroke="#4966ae" stroke-linecap="round" stroke-linejoin="round" stroke-width="2"/>
      </g>
      <g id="Graphic_45">
        <path d="M 345.30583 128.25 L 635 128.25 C 639.4183 128.25 643 131.83172 643 136.25 L 643 863.25 C 643 867.6683 639.4183 871.25 635 871.25 L 345.30583 871.25 C 340.88756 871.25 337.30583 867.6683 337.30583 863.25 L 337.30583 136.25 C 337.30583 131.83172 340.88756 128.25 345.30583 128.25 Z" fill="#f8f6a1"/>
        <path d="M 345.30583 128.25 L 635 128.25 C 639.4183 128.25 643 131.83172 643 136.25 L 643 863.25 C 643 867.6683 639.4183 871.25 635 871.25 L 345.30583 871.25 C 340.88756 871.25 337.30583 867.6683 337.30583 863.25 L 337.30583 136.25 C 337.30583 131.83172 340.88756 128.25 345.30583 128.25 Z" stroke="#c3982a" stroke-linecap="round" stroke-linejoin="round" stroke-width="2"/>
      </g>
      <g id="Graphic_46">
        <path d="M 23.305833 128.25 L 313 128.25 C 317.41828 128.25 321 131.83172 321 136.25 L 321 863.25 C 321 867.6683 317.41828 871.25 313 871.25 L 23.305833 871.25 C 18.887555 871.25 15.305833 867.6683 15.305833 863.25 L 15.305833 136.25 C 15.305833 131.83172 18.887555 128.25 23.305833 128.25 Z" fill="#d0e9c8"/>
        <path d="M 23.305833 128.25 L 313 128.25 C 317.41828 128.25 321 131.83172 321 136.25 L 321 863.25 C 321 867.6683 317.41828 871.25 313 871.25 L 23.305833 871.25 C 18.887555 871.25 15.305833 867.6683 15.305833 863.25 L 15.305833 136.25 C 15.305833 131.83172 18.887555 128.25 23.305833 128.25 Z" stroke="#3e9364" stroke-linecap="round" stroke-linejoin="round" stroke-width="2"/>
      </g>
      <g id="Group_2">
        <g id="Group_4">
          <g id="Graphic_7">
            <path d="M 107.82979 159.675 L 38.702128 159.675 C 33.34379 159.675 29 163.25671 29 167.675 L 29 205.675 C 29 210.09327 33.34379 213.675 38.702128 213.675 L 107.82979 213.675 L 107.82979 213.675 L 125.4149 213.675 C 134.20745 213.675 143 206.925 143 186.675 C 143 166.425 134.20745 159.675 125.4149 159.675 L 119.95745 159.675 Z" fill="white"/>
            <path d="M 107.82979 159.675 L 38.702128 159.675 C 33.34379 159.675 29 163.25671 29 167.675 L 29 205.675 C 29 210.09327 33.34379 213.675 38.702128 213.675 L 107.82979 213.675 L 107.82979 213.675 L 125.4149 213.675 C 134.20745 213.675 143 206.925 143 186.675 C 143 166.425 134.20745 159.675 125.4149 159.675 L 119.95745 159.675 Z" stroke="#3e9364" stroke-linecap="round" stroke-linejoin="round" stroke-width="2"/>
          </g>
          <g id="Line_6">
            <line x1="143" y1="187.675" x2="151.5" y2="159.675" stroke="#3e9364" stroke-linecap="round" stroke-linejoin="round" stroke-width="2"/>
          </g>
          <g id="Line_5">
            <line x1="152.5" y1="214.675" x2="144" y2="187.675" stroke="#3e9364" stroke-linecap="round" stroke-linejoin="round" stroke-width="2"/>
          </g>
        </g>
        <g id="Graphic_3">
          <text transform="translate(40 179.675)" fill="black">
            <tspan font-family="Helvetica Neue" font-size="12" fill="black" x="6.224" y="12">Stakeholders</tspan>
          </text>
        </g>
      </g>
      <g id="Group_8">
        <g id="Group_10">
          <g id="Graphic_13">
            <path d="M 257.8298 159.675 L 188.70213 159.675 C 183.3438 159.675 179 163.25671 179 167.675 L 179 205.675 C 179 210.09327 183.3438 213.675 188.70213 213.675 L 257.8298 213.675 L 257.8298 213.675 L 275.4149 213.675 C 284.20745 213.675 293 206.925 293 186.675 C 293 166.425 284.20745 159.675 275.4149 159.675 L 269.95745 159.675 Z" fill="white"/>
            <path d="M 257.8298 159.675 L 188.70213 159.675 C 183.3438 159.675 179 163.25671 179 167.675 L 179 205.675 C 179 210.09327 183.3438 213.675 188.70213 213.675 L 257.8298 213.675 L 257.8298 213.675 L 275.4149 213.675 C 284.20745 213.675 293 206.925 293 186.675 C 293 166.425 284.20745 159.675 275.4149 159.675 L 269.95745 159.675 Z" stroke="#3e9364" stroke-linecap="round" stroke-linejoin="round" stroke-width="2"/>
          </g>
          <g id="Line_12">
            <line x1="293" y1="187.675" x2="301.5" y2="159.675" stroke="#3e9364" stroke-linecap="round" stroke-linejoin="round" stroke-width="2"/>
          </g>
          <g id="Line_11">
            <line x1="302.5" y1="214.675" x2="294" y2="187.675" stroke="#3e9364" stroke-linecap="round" stroke-linejoin="round" stroke-width="2"/>
          </g>
        </g>
        <g id="Graphic_9">
          <text transform="translate(190 179.675)" fill="black">
            <tspan font-family="Helvetica Neue" font-size="12" fill="black" x="9.998" y="12">Opportunity</tspan>
          </text>
        </g>
      </g>
      <g id="Group_20">
        <g id="Group_22">
          <g id="Graphic_25">
            <path d="M 431.8298 159.675 L 362.70213 159.675 C 357.3438 159.675 353 163.25671 353 167.675 L 353 205.675 C 353 210.09327 357.3438 213.675 362.70213 213.675 L 431.8298 213.675 L 431.8298 213.675 L 449.4149 213.675 C 458.20745 213.675 467 206.925 467 186.675 C 467 166.425 458.20745 159.675 449.4149 159.675 L 443.95745 159.675 Z" fill="white"/>
            <path d="M 431.8298 159.675 L 362.70213 159.675 C 357.3438 159.675 353 163.25671 353 167.675 L 353 205.675 C 353 210.09327 357.3438 213.675 362.70213 213.675 L 431.8298 213.675 L 431.8298 213.675 L 449.4149 213.675 C 458.20745 213.675 467 206.925 467 186.675 C 467 166.425 458.20745 159.675 449.4149 159.675 L 443.95745 159.675 Z" stroke="#c3982a" stroke-linecap="round" stroke-linejoin="round" stroke-width="2"/>
          </g>
          <g id="Line_24">
            <line x1="467" y1="187.675" x2="475.5" y2="159.675" stroke="#c3982a" stroke-linecap="round" stroke-linejoin="round" stroke-width="2"/>
          </g>
          <g id="Line_23">
            <line x1="476.5" y1="214.675" x2="468" y2="187.675" stroke="#c3982a" stroke-linecap="round" stroke-linejoin="round" stroke-width="2"/>
          </g>
        </g>
        <g id="Graphic_21">
          <text transform="translate(364 179.675)" fill="black">
            <tspan font-family="Helvetica Neue" font-size="12" fill="black" x="4.01" y="12">Requirements</tspan>
          </text>
        </g>
      </g>
      <g id="Group_14">
        <g id="Group_16">
          <g id="Graphic_19">
            <path d="M 754.8298 160.07133 L 685.7021 160.07133 C 680.3438 160.07133 676 163.65305 676 168.07133 L 676 206.07133 C 676 210.4896 680.3438 214.07133 685.7021 214.07133 L 754.8298 214.07133 L 754.8298 214.07133 L 772.4149 214.07133 C 781.20745 214.07133 790 207.32133 790 187.07133 C 790 166.82133 781.20745 160.07133 772.4149 160.07133 L 766.95745 160.07133 Z" fill="white"/>
            <path d="M 754.8298 160.07133 L 685.7021 160.07133 C 680.3438 160.07133 676 163.65305 676 168.07133 L 676 206.07133 C 676 210.4896 680.3438 214.07133 685.7021 214.07133 L 754.8298 214.07133 L 754.8298 214.07133 L 772.4149 214.07133 C 781.20745 214.07133 790 207.32133 790 187.07133 C 790 166.82133 781.20745 160.07133 772.4149 160.07133 L 766.95745 160.07133 Z" stroke="#4966ae" stroke-linecap="round" stroke-linejoin="round" stroke-width="2"/>
          </g>
          <g id="Line_18">
            <line x1="790" y1="188.07133" x2="798.5" y2="160.07133" stroke="#4966ae" stroke-linecap="round" stroke-linejoin="round" stroke-width="2"/>
          </g>
          <g id="Line_17">
            <line x1="799.5" y1="215.07133" x2="791" y2="188.07133" stroke="#4966ae" stroke-linecap="round" stroke-linejoin="round" stroke-width="2"/>
          </g>
        </g>
        <g id="Graphic_15">
          <text transform="translate(687 180.07133)" fill="black">
            <tspan font-family="Helvetica Neue" font-size="12" fill="black" x="29.234" y="12">Work</tspan>
          </text>
        </g>
      </g>
      <g id="Group_26">
        <g id="Group_28">
          <g id="Graphic_31">
            <path d="M 582.8298 159.675 L 513.7021 159.675 C 508.3438 159.675 504 163.25671 504 167.675 L 504 205.675 C 504 210.09327 508.3438 213.675 513.7021 213.675 L 582.8298 213.675 L 582.8298 213.675 L 600.4149 213.675 C 609.20745 213.675 618 206.925 618 186.675 C 618 166.425 609.20745 159.675 600.4149 159.675 L 594.95745 159.675 Z" fill="white"/>
            <path d="M 582.8298 159.675 L 513.7021 159.675 C 508.3438 159.675 504 163.25671 504 167.675 L 504 205.675 C 504 210.09327 508.3438 213.675 513.7021 213.675 L 582.8298 213.675 L 582.8298 213.675 L 600.4149 213.675 C 609.20745 213.675 618 206.925 618 186.675 C 618 166.425 609.20745 159.675 600.4149 159.675 L 594.95745 159.675 Z" stroke="#c3982a" stroke-linecap="round" stroke-linejoin="round" stroke-width="2"/>
          </g>
          <g id="Line_30">
            <line x1="618" y1="187.675" x2="626.5" y2="159.675" stroke="#c3982a" stroke-linecap="round" stroke-linejoin="round" stroke-width="2"/>
          </g>
          <g id="Line_29">
            <line x1="627.5" y1="214.675" x2="619" y2="187.675" stroke="#c3982a" stroke-linecap="round" stroke-linejoin="round" stroke-width="2"/>
          </g>
        </g>
        <g id="Graphic_27">
          <text transform="translate(515 179.675)" fill="black">
            <tspan font-family="Helvetica Neue" font-size="12" fill="black" x="22.778" y="12">System</tspan>
          </text>
        </g>
      </g>
      <g id="Group_32">
        <g id="Group_34">
          <g id="Graphic_37">
            <path d="M 905.8298 160.07133 L 836.7021 160.07133 C 831.3438 160.07133 827 163.65305 827 168.07133 L 827 206.07133 C 827 210.4896 831.3438 214.07133 836.7021 214.07133 L 905.8298 214.07133 L 905.8298 214.07133 L 923.4149 214.07133 C 932.2074 214.07133 941 207.32133 941 187.07133 C 941 166.82133 932.2074 160.07133 923.4149 160.07133 L 917.9574 160.07133 Z" fill="white"/>
            <path d="M 905.8298 160.07133 L 836.7021 160.07133 C 831.3438 160.07133 827 163.65305 827 168.07133 L 827 206.07133 C 827 210.4896 831.3438 214.07133 836.7021 214.07133 L 905.8298 214.07133 L 905.8298 214.07133 L 923.4149 214.07133 C 932.2074 214.07133 941 207.32133 941 187.07133 C 941 166.82133 932.2074 160.07133 923.4149 160.07133 L 917.9574 160.07133 Z" stroke="#4966ae" stroke-linecap="round" stroke-linejoin="round" stroke-width="2"/>
          </g>
          <g id="Line_36">
            <line x1="941" y1="188.07133" x2="949.5" y2="160.07133" stroke="#4966ae" stroke-linecap="round" stroke-linejoin="round" stroke-width="2"/>
          </g>
          <g id="Line_35">
            <line x1="950.5" y1="215.07133" x2="942" y2="188.07133" stroke="#4966ae" stroke-linecap="round" stroke-linejoin="round" stroke-width="2"/>
          </g>
        </g>
        <g id="Graphic_33">
          <text transform="translate(838 180.07133)" fill="black">
            <tspan font-family="Helvetica Neue" font-size="12" fill="black" x="28.676" y="12">Team</tspan>
          </text>
        </g>
      </g>
      <g id="Group_38">
        <g id="Group_40">
          <g id="Graphic_43">
            <path d="M 1056.8298 160.07133 L 987.7021 160.07133 C 982.3438 160.07133 978 163.65305 978 168.07133 L 978 206.07133 C 978 210.4896 982.3438 214.07133 987.7021 214.07133 L 1056.8298 214.07133 L 1056.8298 214.07133 L 1074.4149 214.07133 C 1083.2074 214.07133 1092 207.32133 1092 187.07133 C 1092 166.82133 1083.2074 160.07133 1074.4149 160.07133 L 1068.9574 160.07133 Z" fill="white"/>
            <path d="M 1056.8298 160.07133 L 987.7021 160.07133 C 982.3438 160.07133 978 163.65305 978 168.07133 L 978 206.07133 C 978 210.4896 982.3438 214.07133 987.7021 214.07133 L 1056.8298 214.07133 L 1056.8298 214.07133 L 1074.4149 214.07133 C 1083.2074 214.07133 1092 207.32133 1092 187.07133 C 1092 166.82133 1083.2074 160.07133 1074.4149 160.07133 L 1068.9574 160.07133 Z" stroke="#4966ae" stroke-linecap="round" stroke-linejoin="round" stroke-width="2"/>
          </g>
          <g id="Line_42">
            <line x1="1092" y1="188.07133" x2="1100.5" y2="160.07133" stroke="#4966ae" stroke-linecap="round" stroke-linejoin="round" stroke-width="2"/>
          </g>
          <g id="Line_41">
            <line x1="1101.5" y1="215.07133" x2="1093" y2="188.07133" stroke="#4966ae" stroke-linecap="round" stroke-linejoin="round" stroke-width="2"/>
          </g>
        </g>
        <g id="Graphic_39">
          <text transform="translate(989 180.07133)" fill="black">
            <tspan font-family="Helvetica Neue" font-size="12" fill="black" x="24.668" y="12">Way of </tspan>
            <tspan font-family="Helvetica Neue" font-size="12" fill="black" x="20.462" y="27.348083">Working</tspan>
          </text>
        </g>
      </g>
      <g id="Line_56">
        <line x1="87.1579" y1="214.675" x2="88.29699" y2="242.21988" stroke="#409264" stroke-linecap="round" stroke-linejoin="round" stroke-width="1"/>
      </g>
      <g id="Graphic_58">
        <path d="M 36 243.21988 L 142 243.21988 C 145.866 243.21988 149 246.35388 149 250.21988 L 149 268.21988 C 149 272.08587 145.866 275.21988 142 275.21988 L 36 275.21988 C 32.134007 275.21988 29 272.08587 29 268.21988 L 29 250.21988 C 29 246.35388 32.134007 243.21988 36 243.21988 Z" fill="#fcfff9"/>
        <path d="M 36 243.21988 L 142 243.21988 C 145.866 243.21988 149 246.35388 149 250.21988 L 149 268.21988 C 149 272.08587 145.866 275.21988 142 275.21988 L 36 275.21988 C 32.134007 275.21988 29 272.08587 29 268.21988 L 29 250.21988 C 29 246.35388 32.134007 243.21988 36 243.21988 Z" stroke="#3f9464" stroke-linecap="round" stroke-linejoin="round" stroke-width="2"/>
        <text transform="translate(34 251.54583)" fill="black">
          <tspan font-family="Helvetica Neue" font-size="12" fill="black" x="21.118" y="12">Recognized</tspan>
        </text>
      </g>
      <g id="Graphic_60">
        <path d="M 36 366.6842 L 142 366.6842 C 145.866 366.6842 149 369.8182 149 373.6842 L 149 391.6842 C 149 395.5502 145.866 398.6842 142 398.6842 L 36 398.6842 C 32.134007 398.6842 29 395.5502 29 391.6842 L 29 373.6842 C 29 369.8182 32.134007 366.6842 36 366.6842 Z" fill="#fcfff9"/>
        <path d="M 36 366.6842 L 142 366.6842 C 145.866 366.6842 149 369.8182 149 373.6842 L 149 391.6842 C 149 395.5502 145.866 398.6842 142 398.6842 L 36 398.6842 C 32.134007 398.6842 29 395.5502 29 391.6842 L 29 373.6842 C 29 369.8182 32.134007 366.6842 36 366.6842 Z" stroke="#3f9464" stroke-linecap="round" stroke-linejoin="round" stroke-width="2"/>
        <text transform="translate(34 375.01017)" fill="black">
          <tspan font-family="Helvetica Neue" font-size="12" fill="black" x="31.108" y="12">Involved</tspan>
        </text>
      </g>
      <g id="Graphic_61">
        <path d="M 36 491.46433 L 142 491.46433 C 145.866 491.46433 149 494.59834 149 498.46433 L 149 516.46433 C 149 520.3303 145.866 523.46433 142 523.46433 L 36 523.46433 C 32.134007 523.46433 29 520.3303 29 516.46433 L 29 498.46433 C 29 494.59834 32.134007 491.46433 36 491.46433 Z" fill="#fcfff9"/>
        <path d="M 36 491.46433 L 142 491.46433 C 145.866 491.46433 149 494.59834 149 498.46433 L 149 516.46433 C 149 520.3303 145.866 523.46433 142 523.46433 L 36 523.46433 C 32.134007 523.46433 29 520.3303 29 516.46433 L 29 498.46433 C 29 494.59834 32.134007 491.46433 36 491.46433 Z" stroke="#3f9464" stroke-linecap="round" stroke-linejoin="round" stroke-width="2"/>
        <text transform="translate(34 499.7903)" fill="black">
          <tspan font-family="Helvetica Neue" font-size="12" fill="black" x="16.564" y="12">In Agreement</tspan>
        </text>
      </g>
      <g id="Graphic_62">
        <path d="M 36 681.7955 L 142 681.7955 C 145.866 681.7955 149 684.9295 149 688.7955 L 149 706.7955 C 149 710.6615 145.866 713.7955 142 713.7955 L 36 713.7955 C 32.134007 713.7955 29 710.6615 29 706.7955 L 29 688.7955 C 29 684.9295 32.134007 681.7955 36 681.7955 Z" fill="#fcfff9"/>
        <path d="M 36 681.7955 L 142 681.7955 C 145.866 681.7955 149 684.9295 149 688.7955 L 149 706.7955 C 149 710.6615 145.866 713.7955 142 713.7955 L 36 713.7955 C 32.134007 713.7955 29 710.6615 29 706.7955 L 29 688.7955 C 29 684.9295 32.134007 681.7955 36 681.7955 Z" stroke="#3f9464" stroke-linecap="round" stroke-linejoin="round" stroke-width="2"/>
        <text transform="translate(34 682.4474)" fill="black">
          <tspan font-family="Helvetica Neue" font-size="12" fill="black" x="20.338" y="12">Satisfied for </tspan>
          <tspan font-family="Helvetica Neue" font-size="12" fill="black" x="20.566" y="27.348083">Deployment</tspan>
        </text>
      </g>
      <g id="Graphic_63">
        <path d="M 36 822.565 L 142 822.565 C 145.866 822.565 149 825.699 149 829.565 L 149 847.565 C 149 851.431 145.866 854.565 142 854.565 L 36 854.565 C 32.134007 854.565 29 851.431 29 847.565 L 29 829.565 C 29 825.699 32.134007 822.565 36 822.565 Z" fill="#fcfff9"/>
        <path d="M 36 822.565 L 142 822.565 C 145.866 822.565 149 825.699 149 829.565 L 149 847.565 C 149 851.431 145.866 854.565 142 854.565 L 36 854.565 C 32.134007 854.565 29 851.431 29 847.565 L 29 829.565 C 29 825.699 32.134007 822.565 36 822.565 Z" stroke="#3f9464" stroke-linecap="round" stroke-linejoin="round" stroke-dasharray="8.0,8.0" stroke-width="2"/>
        <text transform="translate(34 830.891)" fill="black">
          <tspan font-family="Helvetica Neue" font-size="12" fill="black" x="10.45" y="12">Satisfied in Use</tspan>
        </text>
      </g>
      <g id="Line_66">
        <line x1="89" y1="399.6842" x2="89" y2="490.46433" stroke="#409264" stroke-linecap="round" stroke-linejoin="round" stroke-width="1"/>
      </g>
      <g id="Line_67">
        <line x1="89" y1="524.46433" x2="89" y2="680.7955" stroke="#409264" stroke-linecap="round" stroke-linejoin="round" stroke-width="1"/>
      </g>
      <g id="Line_68">
        <line x1="89" y1="714.7955" x2="89" y2="821.565" stroke="#409264" stroke-linecap="round" stroke-linejoin="round" stroke-width="1"/>
      </g>
      <g id="Graphic_69">
        <path d="M 186 243.21988 L 292 243.21988 C 295.866 243.21988 299 246.35388 299 250.21988 L 299 268.21988 C 299 272.08587 295.866 275.21988 292 275.21988 L 186 275.21988 C 182.134 275.21988 179 272.08587 179 268.21988 L 179 250.21988 C 179 246.35388 182.134 243.21988 186 243.21988 Z" fill="#fcfff9"/>
        <path d="M 186 243.21988 L 292 243.21988 C 295.866 243.21988 299 246.35388 299 250.21988 L 299 268.21988 C 299 272.08587 295.866 275.21988 292 275.21988 L 186 275.21988 C 182.134 275.21988 179 272.08587 179 268.21988 L 179 250.21988 C 179 246.35388 182.134 243.21988 186 243.21988 Z" stroke="#3f9464" stroke-linecap="round" stroke-linejoin="round" stroke-width="2"/>
        <text transform="translate(184 251.54583)" fill="black">
          <tspan font-family="Helvetica Neue" font-size="12" fill="black" x="28.126" y="12">Identified</tspan>
        </text>
      </g>
      <g id="Graphic_74">
        <path d="M 36 304.29415 L 142 304.29415 C 145.866 304.29415 149 307.42816 149 311.29415 L 149 329.29415 C 149 333.16014 145.866 336.29415 142 336.29415 L 36 336.29415 C 32.134007 336.29415 29 333.16014 29 329.29415 L 29 311.29415 C 29 307.42816 32.134007 304.29415 36 304.29415 Z" fill="#fcfff9"/>
        <path d="M 36 304.29415 L 142 304.29415 C 145.866 304.29415 149 307.42816 149 311.29415 L 149 329.29415 C 149 333.16014 145.866 336.29415 142 336.29415 L 36 336.29415 C 32.134007 336.29415 29 333.16014 29 329.29415 L 29 311.29415 C 29 307.42816 32.134007 304.29415 36 304.29415 Z" stroke="#3f9464" stroke-linecap="round" stroke-linejoin="round" stroke-width="2"/>
        <text transform="translate(34 312.6201)" fill="black">
          <tspan font-family="Helvetica Neue" font-size="12" fill="black" x="18.442" y="12">Represented</tspan>
        </text>
      </g>
      <g id="Graphic_79">
        <path d="M 186 304.29415 L 292 304.29415 C 295.866 304.29415 299 307.42816 299 311.29415 L 299 329.29415 C 299 333.16014 295.866 336.29415 292 336.29415 L 186 336.29415 C 182.134 336.29415 179 333.16014 179 329.29415 L 179 311.29415 C 179 307.42816 182.134 304.29415 186 304.29415 Z" fill="#fcfff9"/>
        <path d="M 186 304.29415 L 292 304.29415 C 295.866 304.29415 299 307.42816 299 311.29415 L 299 329.29415 C 299 333.16014 295.866 336.29415 292 336.29415 L 186 336.29415 C 182.134 336.29415 179 333.16014 179 329.29415 L 179 311.29415 C 179 307.42816 182.134 304.29415 186 304.29415 Z" stroke="#3f9464" stroke-linecap="round" stroke-linejoin="round" stroke-width="2"/>
        <text transform="translate(184 312.6201)" fill="black">
          <tspan font-family="Helvetica Neue" font-size="12" fill="black" x="8.56" y="12">Solution needed</tspan>
        </text>
      </g>
      <g id="Graphic_78">
        <path d="M 186 366.6842 L 292 366.6842 C 295.866 366.6842 299 369.8182 299 373.6842 L 299 391.6842 C 299 395.5502 295.866 398.6842 292 398.6842 L 186 398.6842 C 182.134 398.6842 179 395.5502 179 391.6842 L 179 373.6842 C 179 369.8182 182.134 366.6842 186 366.6842 Z" fill="#fcfff9"/>
        <path d="M 186 366.6842 L 292 366.6842 C 295.866 366.6842 299 369.8182 299 373.6842 L 299 391.6842 C 299 395.5502 295.866 398.6842 292 398.6842 L 186 398.6842 C 182.134 398.6842 179 395.5502 179 391.6842 L 179 373.6842 C 179 369.8182 182.134 366.6842 186 366.6842 Z" stroke="#3f9464" stroke-linecap="round" stroke-linejoin="round" stroke-width="2"/>
        <text transform="translate(184 375.01017)" fill="black">
          <tspan font-family="Helvetica Neue" font-size="12" fill="black" x="5.014" y="12">Value established</tspan>
        </text>
      </g>
      <g id="Graphic_77">
        <path d="M 186 491.46433 L 292 491.46433 C 295.866 491.46433 299 494.59834 299 498.46433 L 299 516.46433 C 299 520.3303 295.866 523.46433 292 523.46433 L 186 523.46433 C 182.134 523.46433 179 520.3303 179 516.46433 L 179 498.46433 C 179 494.59834 182.134 491.46433 186 491.46433 Z" fill="#fcfff9"/>
        <path d="M 186 491.46433 L 292 491.46433 C 295.866 491.46433 299 494.59834 299 498.46433 L 299 516.46433 C 299 520.3303 295.866 523.46433 292 523.46433 L 186 523.46433 C 182.134 523.46433 179 520.3303 179 516.46433 L 179 498.46433 C 179 494.59834 182.134 491.46433 186 491.46433 Z" stroke="#3f9464" stroke-linecap="round" stroke-linejoin="round" stroke-width="2"/>
        <text transform="translate(184 499.7903)" fill="black">
          <tspan font-family="Helvetica Neue" font-size="12" fill="black" x="37.678" y="12">Viable</tspan>
        </text>
      </g>
      <g id="Graphic_76">
        <path d="M 186 681.7955 L 292 681.7955 C 295.866 681.7955 299 684.9295 299 688.7955 L 299 706.7955 C 299 710.6615 295.866 713.7955 292 713.7955 L 186 713.7955 C 182.134 713.7955 179 710.6615 179 706.7955 L 179 688.7955 C 179 684.9295 182.134 681.7955 186 681.7955 Z" fill="#fcfff9"/>
        <path d="M 186 681.7955 L 292 681.7955 C 295.866 681.7955 299 684.9295 299 688.7955 L 299 706.7955 C 299 710.6615 295.866 713.7955 292 713.7955 L 186 713.7955 C 182.134 713.7955 179 710.6615 179 706.7955 L 179 688.7955 C 179 684.9295 182.134 681.7955 186 681.7955 Z" stroke="#3f9464" stroke-linecap="round" stroke-linejoin="round" stroke-width="2"/>
        <text transform="translate(184 690.12145)" fill="black">
          <tspan font-family="Helvetica Neue" font-size="12" fill="black" x="28" y="12">Adressed</tspan>
        </text>
      </g>
      <g id="Graphic_75">
        <path d="M 187.75 822.565 L 293.75 822.565 C 297.616 822.565 300.75 825.699 300.75 829.565 L 300.75 847.565 C 300.75 851.431 297.616 854.565 293.75 854.565 L 187.75 854.565 C 183.884 854.565 180.75 851.431 180.75 847.565 L 180.75 829.565 C 180.75 825.699 183.884 822.565 187.75 822.565 Z" fill="#fcfff9"/>
        <path d="M 187.75 822.565 L 293.75 822.565 C 297.616 822.565 300.75 825.699 300.75 829.565 L 300.75 847.565 C 300.75 851.431 297.616 854.565 293.75 854.565 L 187.75 854.565 C 183.884 854.565 180.75 851.431 180.75 847.565 L 180.75 829.565 C 180.75 825.699 183.884 822.565 187.75 822.565 Z" stroke="#3f9464" stroke-linecap="round" stroke-linejoin="round" stroke-dasharray="8.0,8.0" stroke-width="2"/>
        <text transform="translate(185.75 830.891)" fill="black">
          <tspan font-family="Helvetica Neue" font-size="12" fill="black" x="8.884" y="12">Benefit Accrued</tspan>
        </text>
      </g>
      <g id="Line_91">
        <line x1="237.1579" y1="214.675" x2="238.297" y2="242.21988" stroke="#409264" stroke-linecap="round" stroke-linejoin="round" stroke-width="1"/>
      </g>
      <g id="Graphic_92">
        <path d="M 360 304.29415 L 466 304.29415 C 469.866 304.29415 473 307.42816 473 311.29415 L 473 329.29415 C 473 333.16014 469.866 336.29415 466 336.29415 L 360 336.29415 C 356.134 336.29415 353 333.16014 353 329.29415 L 353 311.29415 C 353 307.42816 356.134 304.29415 360 304.29415 Z" fill="#fcfff9"/>
        <path d="M 360 304.29415 L 466 304.29415 C 469.866 304.29415 473 307.42816 473 311.29415 L 473 329.29415 C 473 333.16014 469.866 336.29415 466 336.29415 L 360 336.29415 C 356.134 336.29415 353 333.16014 353 329.29415 L 353 311.29415 C 353 307.42816 356.134 304.29415 360 304.29415 Z" stroke="#c3982b" stroke-linecap="round" stroke-linejoin="round" stroke-width="2"/>
        <text transform="translate(358 312.6201)" fill="black">
          <tspan font-family="Helvetica Neue" font-size="12" fill="black" x="24.664" y="12">Conceived</tspan>
        </text>
      </g>
      <g id="Graphic_93">
        <path d="M 683 243.21988 L 789 243.21988 C 792.866 243.21988 796 246.35388 796 250.21988 L 796 268.21988 C 796 272.08587 792.866 275.21988 789 275.21988 L 683 275.21988 C 679.134 275.21988 676 272.08587 676 268.21988 L 676 250.21988 C 676 246.35388 679.134 243.21988 683 243.21988 Z" fill="#fcfff9"/>
        <path d="M 683 243.21988 L 789 243.21988 C 792.866 243.21988 796 246.35388 796 250.21988 L 796 268.21988 C 796 272.08587 792.866 275.21988 789 275.21988 L 683 275.21988 C 679.134 275.21988 676 272.08587 676 268.21988 L 676 250.21988 C 676 246.35388 679.134 243.21988 683 243.21988 Z" stroke="#4866ae" stroke-linecap="round" stroke-linejoin="round" stroke-width="2"/>
        <text transform="translate(681 251.54583)" fill="black">
          <tspan font-family="Helvetica Neue" font-size="12" fill="black" x="31.798" y="12">Initiated</tspan>
        </text>
      </g>
      <g id="Graphic_94">
        <path d="M 360 366.6842 L 466 366.6842 C 469.866 366.6842 473 369.8182 473 373.6842 L 473 391.6842 C 473 395.5502 469.866 398.6842 466 398.6842 L 360 398.6842 C 356.134 398.6842 353 395.5502 353 391.6842 L 353 373.6842 C 353 369.8182 356.134 366.6842 360 366.6842 Z" fill="#fcfff9"/>
        <path d="M 360 366.6842 L 466 366.6842 C 469.866 366.6842 473 369.8182 473 373.6842 L 473 391.6842 C 473 395.5502 469.866 398.6842 466 398.6842 L 360 398.6842 C 356.134 398.6842 353 395.5502 353 391.6842 L 353 373.6842 C 353 369.8182 356.134 366.6842 360 366.6842 Z" stroke="#c3982b" stroke-linecap="round" stroke-linejoin="round" stroke-width="2"/>
        <text transform="translate(358 375.01017)" fill="black">
          <tspan font-family="Helvetica Neue" font-size="12" fill="black" x="29.218" y="12">Bounded</tspan>
        </text>
      </g>
      <g id="Line_95">
        <line x1="410.62865" y1="214.675" x2="412.6183" y2="303.29415" stroke="#c2992b" stroke-linecap="round" stroke-linejoin="round" stroke-width="1"/>
      </g>
      <g id="Line_96">
        <line x1="413" y1="337.29415" x2="413" y2="365.6842" stroke="#c2992b" stroke-linecap="round" stroke-linejoin="round" stroke-width="1"/>
      </g>
      <g id="Graphic_99">
        <path d="M 360 491.46433 L 466 491.46433 C 469.866 491.46433 473 494.59834 473 498.46433 L 473 516.46433 C 473 520.3303 469.866 523.46433 466 523.46433 L 360 523.46433 C 356.134 523.46433 353 520.3303 353 516.46433 L 353 498.46433 C 353 494.59834 356.134 491.46433 360 491.46433 Z" fill="#fcfff9"/>
        <path d="M 360 491.46433 L 466 491.46433 C 469.866 491.46433 473 494.59834 473 498.46433 L 473 516.46433 C 473 520.3303 469.866 523.46433 466 523.46433 L 360 523.46433 C 356.134 523.46433 353 520.3303 353 516.46433 L 353 498.46433 C 353 494.59834 356.134 491.46433 360 491.46433 Z" stroke="#c3982b" stroke-linecap="round" stroke-linejoin="round" stroke-width="2"/>
        <text transform="translate(358 499.7903)" fill="black">
          <tspan font-family="Helvetica Neue" font-size="12" fill="black" x="28.546" y="12">Coherent</tspan>
        </text>
      </g>
      <g id="Graphic_98">
        <path d="M 360 550.6934 L 466 550.6934 C 469.866 550.6934 473 553.82744 473 557.6934 L 473 575.6934 C 473 579.5594 469.866 582.6934 466 582.6934 L 360 582.6934 C 356.134 582.6934 353 579.5594 353 575.6934 L 353 557.6934 C 353 553.82744 356.134 550.6934 360 550.6934 Z" fill="#fcfff9"/>
        <path d="M 360 550.6934 L 466 550.6934 C 469.866 550.6934 473 553.82744 473 557.6934 L 473 575.6934 C 473 579.5594 469.866 582.6934 466 582.6934 L 360 582.6934 C 356.134 582.6934 353 579.5594 353 575.6934 L 353 557.6934 C 353 553.82744 356.134 550.6934 360 550.6934 Z" stroke="#c3982b" stroke-linecap="round" stroke-linejoin="round" stroke-width="2"/>
        <text transform="translate(358 559.0194)" fill="black">
          <tspan font-family="Helvetica Neue" font-size="12" fill="black" x="22.678" y="12">Acceptable</tspan>
        </text>
      </g>
      <g id="Line_97">
        <line x1="413" y1="524.46433" x2="413" y2="549.6934" stroke="#c2992b" stroke-linecap="round" stroke-linejoin="round" stroke-width="1"/>
      </g>
      <g id="Graphic_102">
        <path d="M 360 616.24446 L 466 616.24446 C 469.866 616.24446 473 619.3785 473 623.24446 L 473 641.24446 C 473 645.11045 469.866 648.24446 466 648.24446 L 360 648.24446 C 356.134 648.24446 353 645.11045 353 641.24446 L 353 623.24446 C 353 619.3785 356.134 616.24446 360 616.24446 Z" fill="#fcfff9"/>
        <path d="M 360 616.24446 L 466 616.24446 C 469.866 616.24446 473 619.3785 473 623.24446 L 473 641.24446 C 473 645.11045 469.866 648.24446 466 648.24446 L 360 648.24446 C 356.134 648.24446 353 645.11045 353 641.24446 L 353 623.24446 C 353 619.3785 356.134 616.24446 360 616.24446 Z" stroke="#c3982b" stroke-linecap="round" stroke-linejoin="round" stroke-width="2"/>
        <text transform="translate(358 624.5704)" fill="black">
          <tspan font-family="Helvetica Neue" font-size="12" fill="black" x="28" y="12">Adressed</tspan>
        </text>
      </g>
      <g id="Graphic_101">
        <path d="M 360 681.7955 L 466 681.7955 C 469.866 681.7955 473 684.9295 473 688.7955 L 473 706.7955 C 473 710.6615 469.866 713.7955 466 713.7955 L 360 713.7955 C 356.134 713.7955 353 710.6615 353 706.7955 L 353 688.7955 C 353 684.9295 356.134 681.7955 360 681.7955 Z" fill="#fcfff9"/>
        <path d="M 360 681.7955 L 466 681.7955 C 469.866 681.7955 473 684.9295 473 688.7955 L 473 706.7955 C 473 710.6615 469.866 713.7955 466 713.7955 L 360 713.7955 C 356.134 713.7955 353 710.6615 353 706.7955 L 353 688.7955 C 353 684.9295 356.134 681.7955 360 681.7955 Z" stroke="#c3982b" stroke-linecap="round" stroke-linejoin="round" stroke-dasharray="8.0,8.0" stroke-width="2"/>
        <text transform="translate(358 690.12145)" fill="black">
          <tspan font-family="Helvetica Neue" font-size="12" fill="black" x="32.464" y="12">Fulfilled</tspan>
        </text>
      </g>
      <g id="Line_100">
        <line x1="413" y1="649.24446" x2="413" y2="680.7955" stroke="#c2992b" stroke-linecap="round" stroke-linejoin="round" stroke-width="1"/>
      </g>
      <g id="Graphic_103">
        <path d="M 360 822.565 L 466 822.565 C 469.866 822.565 473 825.699 473 829.565 L 473 847.565 C 473 851.431 469.866 854.565 466 854.565 L 360 854.565 C 356.134 854.565 353 851.431 353 847.565 L 353 829.565 C 353 825.699 356.134 822.565 360 822.565 Z" fill="#fcfff9"/>
        <path d="M 360 822.565 L 466 822.565 C 469.866 822.565 473 825.699 473 829.565 L 473 847.565 C 473 851.431 469.866 854.565 466 854.565 L 360 854.565 C 356.134 854.565 353 851.431 353 847.565 L 353 829.565 C 353 825.699 356.134 822.565 360 822.565 Z" stroke="#c3982b" stroke-linecap="round" stroke-linejoin="round" stroke-width="2"/>
        <text transform="translate(358 830.891)" fill="black">
          <tspan font-family="Helvetica Neue" font-size="12" fill="black" x="32.464" y="12">Fulfilled</tspan>
        </text>
      </g>
      <g id="Line_104">
        <line x1="413" y1="399.6842" x2="413" y2="490.46433" stroke="#c2992b" stroke-linecap="round" stroke-linejoin="round" stroke-width="1"/>
      </g>
      <g id="Line_105">
        <line x1="413" y1="583.6934" x2="413" y2="615.24446" stroke="#c2992b" stroke-linecap="round" stroke-linejoin="round" stroke-width="1"/>
      </g>
      <g id="Line_107">
        <line x1="413" y1="714.7955" x2="413" y2="821.565" stroke="#c2992b" stroke-linecap="round" stroke-linejoin="round" stroke-width="1"/>
      </g>
      <g id="Graphic_119">
        <path d="M 511 366.6842 L 617 366.6842 C 620.866 366.6842 624 369.8182 624 373.6842 L 624 391.6842 C 624 395.5502 620.866 398.6842 617 398.6842 L 511 398.6842 C 507.134 398.6842 504 395.5502 504 391.6842 L 504 373.6842 C 504 369.8182 507.134 366.6842 511 366.6842 Z" fill="#fcfff9"/>
        <path d="M 511 366.6842 L 617 366.6842 C 620.866 366.6842 624 369.8182 624 373.6842 L 624 391.6842 C 624 395.5502 620.866 398.6842 617 398.6842 L 511 398.6842 C 507.134 398.6842 504 395.5502 504 391.6842 L 504 373.6842 C 504 369.8182 507.134 366.6842 511 366.6842 Z" stroke="#c3982b" stroke-linecap="round" stroke-linejoin="round" stroke-width="2"/>
        <text transform="translate(509 375.01017)" fill="black">
          <tspan font-family="Helvetica Neue" font-size="12" fill="black" x=".556" y="12">Approach Selected</tspan>
        </text>
      </g>
      <g id="Graphic_118">
        <path d="M 511 429.07427 L 617 429.07427 C 620.866 429.07427 624 432.2083 624 436.07427 L 624 454.07427 C 624 457.94027 620.866 461.0743 617 461.0743 L 511 461.0743 C 507.134 461.0743 504 457.94027 504 454.07427 L 504 436.07427 C 504 432.2083 507.134 429.07427 511 429.07427 Z" fill="#fcfff9"/>
        <path d="M 511 429.07427 L 617 429.07427 C 620.866 429.07427 624 432.2083 624 436.07427 L 624 454.07427 C 624 457.94027 620.866 461.0743 617 461.0743 L 511 461.0743 C 507.134 461.0743 504 457.94027 504 454.07427 L 504 436.07427 C 504 432.2083 507.134 429.07427 511 429.07427 Z" stroke="#c3982b" stroke-linecap="round" stroke-linejoin="round" stroke-width="2"/>
        <text transform="translate(509 437.40023)" fill="black">
          <tspan font-family="Helvetica Neue" font-size="12" fill="black" x="14.68" y="12">Demonstrable</tspan>
        </text>
      </g>
      <g id="Line_117">
        <line x1="561.42855" y1="214.675" x2="563.7398" y2="365.6842" stroke="#c2992b" stroke-linecap="round" stroke-linejoin="round" stroke-width="1"/>
      </g>
      <g id="Line_116">
        <line x1="564" y1="399.6842" x2="564" y2="428.07427" stroke="#c2992b" stroke-linecap="round" stroke-linejoin="round" stroke-width="1"/>
      </g>
      <g id="Graphic_115">
        <path d="M 511 491.46433 L 617 491.46433 C 620.866 491.46433 624 494.59834 624 498.46433 L 624 516.46433 C 624 520.3303 620.866 523.46433 617 523.46433 L 511 523.46433 C 507.134 523.46433 504 520.3303 504 516.46433 L 504 498.46433 C 504 494.59834 507.134 491.46433 511 491.46433 Z" fill="#fcfff9"/>
        <path d="M 511 491.46433 L 617 491.46433 C 620.866 491.46433 624 494.59834 624 498.46433 L 624 516.46433 C 624 520.3303 620.866 523.46433 617 523.46433 L 511 523.46433 C 507.134 523.46433 504 520.3303 504 516.46433 L 504 498.46433 C 504 494.59834 507.134 491.46433 511 491.46433 Z" stroke="#c3982b" stroke-linecap="round" stroke-linejoin="round" stroke-dasharray="8.0,8.0" stroke-width="2"/>
        <text transform="translate(509 499.7903)" fill="black">
          <tspan font-family="Helvetica Neue" font-size="12" fill="black" x="35.23" y="12">Usable</tspan>
        </text>
      </g>
      <g id="Graphic_114">
        <path d="M 511 681.7955 L 617 681.7955 C 620.866 681.7955 624 684.9295 624 688.7955 L 624 706.7955 C 624 710.6615 620.866 713.7955 617 713.7955 L 511 713.7955 C 507.134 713.7955 504 710.6615 504 706.7955 L 504 688.7955 C 504 684.9295 507.134 681.7955 511 681.7955 Z" fill="#fcfff9"/>
        <path d="M 511 681.7955 L 617 681.7955 C 620.866 681.7955 624 684.9295 624 688.7955 L 624 706.7955 C 624 710.6615 620.866 713.7955 617 713.7955 L 511 713.7955 C 507.134 713.7955 504 710.6615 504 706.7955 L 504 688.7955 C 504 684.9295 507.134 681.7955 511 681.7955 Z" stroke="#c3982b" stroke-linecap="round" stroke-linejoin="round" stroke-width="2"/>
        <text transform="translate(509 690.12145)" fill="black">
          <tspan font-family="Helvetica Neue" font-size="12" fill="black" x="37" y="12">Ready</tspan>
        </text>
      </g>
      <g id="Line_113">
        <line x1="564" y1="524.46433" x2="564" y2="680.7955" stroke="#c2992b" stroke-linecap="round" stroke-linejoin="round" stroke-width="1"/>
      </g>
      <g id="Graphic_112">
        <path d="M 511 748.2825 L 617 748.2825 C 620.866 748.2825 624 751.4165 624 755.2825 L 624 773.2825 C 624 777.1485 620.866 780.2825 617 780.2825 L 511 780.2825 C 507.134 780.2825 504 777.1485 504 773.2825 L 504 755.2825 C 504 751.4165 507.134 748.2825 511 748.2825 Z" fill="#fcfff9"/>
        <path d="M 511 748.2825 L 617 748.2825 C 620.866 748.2825 624 751.4165 624 755.2825 L 624 773.2825 C 624 777.1485 620.866 780.2825 617 780.2825 L 511 780.2825 C 507.134 780.2825 504 777.1485 504 773.2825 L 504 755.2825 C 504 751.4165 507.134 748.2825 511 748.2825 Z" stroke="#c3982b" stroke-linecap="round" stroke-linejoin="round" stroke-width="2"/>
        <text transform="translate(509 756.6085)" fill="black">
          <tspan font-family="Helvetica Neue" font-size="12" fill="black" x="21.568" y="12">Operational</tspan>
        </text>
      </g>
      <g id="Graphic_111">
        <path d="M 511 822.565 L 617 822.565 C 620.866 822.565 624 825.699 624 829.565 L 624 847.565 C 624 851.431 620.866 854.565 617 854.565 L 511 854.565 C 507.134 854.565 504 851.431 504 847.565 L 504 829.565 C 504 825.699 507.134 822.565 511 822.565 Z" fill="#fcfff9"/>
        <path d="M 511 822.565 L 617 822.565 C 620.866 822.565 624 825.699 624 829.565 L 624 847.565 C 624 851.431 620.866 854.565 617 854.565 L 511 854.565 C 507.134 854.565 504 851.431 504 847.565 L 504 829.565 C 504 825.699 507.134 822.565 511 822.565 Z" stroke="#c3982b" stroke-linecap="round" stroke-linejoin="round" stroke-dasharray="8.0,8.0" stroke-width="2"/>
        <text transform="translate(509 830.891)" fill="black">
          <tspan font-family="Helvetica Neue" font-size="12" fill="black" x="34.228" y="12">Retired</tspan>
        </text>
      </g>
      <g id="Line_110">
        <line x1="564" y1="781.2825" x2="564" y2="821.565" stroke="#c2992b" stroke-linecap="round" stroke-linejoin="round" stroke-width="1"/>
      </g>
      <g id="Line_109">
        <line x1="564" y1="462.0743" x2="564" y2="490.46433" stroke="#c2992b" stroke-linecap="round" stroke-linejoin="round" stroke-width="1"/>
      </g>
      <g id="Line_108">
        <line x1="564" y1="714.7955" x2="564" y2="747.2825" stroke="#c2992b" stroke-linecap="round" stroke-linejoin="round" stroke-width="1"/>
      </g>
      <g id="Line_120">
        <line x1="734.1643" y1="215.07133" x2="735.2931" y2="242.21988" stroke="#4866ae" stroke-linecap="round" stroke-linejoin="round" stroke-width="1"/>
      </g>
      <g id="Graphic_122">
        <path d="M 683 366.6842 L 789 366.6842 C 792.866 366.6842 796 369.8182 796 373.6842 L 796 391.6842 C 796 395.5502 792.866 398.6842 789 398.6842 L 683 398.6842 C 679.134 398.6842 676 395.5502 676 391.6842 L 676 373.6842 C 676 369.8182 679.134 366.6842 683 366.6842 Z" fill="#fcfff9"/>
        <path d="M 683 366.6842 L 789 366.6842 C 792.866 366.6842 796 369.8182 796 373.6842 L 796 391.6842 C 796 395.5502 792.866 398.6842 789 398.6842 L 683 398.6842 C 679.134 398.6842 676 395.5502 676 391.6842 L 676 373.6842 C 676 369.8182 679.134 366.6842 683 366.6842 Z" stroke="#4866ae" stroke-linecap="round" stroke-linejoin="round" stroke-width="2"/>
        <text transform="translate(681 375.01017)" fill="black">
          <tspan font-family="Helvetica Neue" font-size="12" fill="black" x="28.882" y="12">Prepared</tspan>
        </text>
      </g>
      <g id="Line_121">
        <line x1="736" y1="276.21988" x2="736" y2="365.6842" stroke="#4866ae" stroke-linecap="round" stroke-linejoin="round" stroke-width="1"/>
      </g>
      <g id="Graphic_124">
        <path d="M 683 429.07427 L 789 429.07427 C 792.866 429.07427 796 432.2083 796 436.07427 L 796 454.07427 C 796 457.94027 792.866 461.0743 789 461.0743 L 683 461.0743 C 679.134 461.0743 676 457.94027 676 454.07427 L 676 436.07427 C 676 432.2083 679.134 429.07427 683 429.07427 Z" fill="#fcfff9"/>
        <path d="M 683 429.07427 L 789 429.07427 C 792.866 429.07427 796 432.2083 796 436.07427 L 796 454.07427 C 796 457.94027 792.866 461.0743 789 461.0743 L 683 461.0743 C 679.134 461.0743 676 457.94027 676 454.07427 L 676 436.07427 C 676 432.2083 679.134 429.07427 683 429.07427 Z" stroke="#4866ae" stroke-linecap="round" stroke-linejoin="round" stroke-width="2"/>
        <text transform="translate(681 437.40023)" fill="black">
          <tspan font-family="Helvetica Neue" font-size="12" fill="black" x="33.994" y="12">Started</tspan>
        </text>
      </g>
      <g id="Line_123">
        <line x1="736" y1="399.6842" x2="736" y2="428.07427" stroke="#4866ae" stroke-linecap="round" stroke-linejoin="round" stroke-width="1"/>
      </g>
      <g id="Graphic_126">
        <path d="M 683 491.46433 L 789 491.46433 C 792.866 491.46433 796 494.59834 796 498.46433 L 796 516.46433 C 796 520.3303 792.866 523.46433 789 523.46433 L 683 523.46433 C 679.134 523.46433 676 520.3303 676 516.46433 L 676 498.46433 C 676 494.59834 679.134 491.46433 683 491.46433 Z" fill="#fcfff9"/>
        <path d="M 683 491.46433 L 789 491.46433 C 792.866 491.46433 796 494.59834 796 498.46433 L 796 516.46433 C 796 520.3303 792.866 523.46433 789 523.46433 L 683 523.46433 C 679.134 523.46433 676 520.3303 676 516.46433 L 676 498.46433 C 676 494.59834 679.134 491.46433 683 491.46433 Z" stroke="#4866ae" stroke-linecap="round" stroke-linejoin="round" stroke-width="2"/>
        <text transform="translate(681 499.7903)" fill="black">
          <tspan font-family="Helvetica Neue" font-size="12" fill="black" x="14.662" y="12">Under Control</tspan>
        </text>
      </g>
      <g id="Line_125">
        <line x1="736" y1="462.0743" x2="736" y2="490.46433" stroke="#4866ae" stroke-linecap="round" stroke-linejoin="round" stroke-width="1"/>
      </g>
      <g id="Graphic_128">
        <path d="M 683 681.7955 L 789 681.7955 C 792.866 681.7955 796 684.9295 796 688.7955 L 796 706.7955 C 796 710.6615 792.866 713.7955 789 713.7955 L 683 713.7955 C 679.134 713.7955 676 710.6615 676 706.7955 L 676 688.7955 C 676 684.9295 679.134 681.7955 683 681.7955 Z" fill="#fcfff9"/>
        <path d="M 683 681.7955 L 789 681.7955 C 792.866 681.7955 796 684.9295 796 688.7955 L 796 706.7955 C 796 710.6615 792.866 713.7955 789 713.7955 L 683 713.7955 C 679.134 713.7955 676 710.6615 676 706.7955 L 676 688.7955 C 676 684.9295 679.134 681.7955 683 681.7955 Z" stroke="#4866ae" stroke-linecap="round" stroke-linejoin="round" stroke-dasharray="8.0,8.0" stroke-width="2"/>
        <text transform="translate(681 690.12145)" fill="black">
          <tspan font-family="Helvetica Neue" font-size="12" fill="black" x="20.452" y="12">(Concluded)</tspan>
        </text>
      </g>
      <g id="Line_127">
        <line x1="736" y1="524.46433" x2="736" y2="680.7955" stroke="#4866ae" stroke-linecap="round" stroke-linejoin="round" stroke-width="1"/>
      </g>
      <g id="Graphic_130">
        <path d="M 683 748.2825 L 789 748.2825 C 792.866 748.2825 796 751.4165 796 755.2825 L 796 773.2825 C 796 777.1485 792.866 780.2825 789 780.2825 L 683 780.2825 C 679.134 780.2825 676 777.1485 676 773.2825 L 676 755.2825 C 676 751.4165 679.134 748.2825 683 748.2825 Z" fill="#fcfff9"/>
        <path d="M 683 748.2825 L 789 748.2825 C 792.866 748.2825 796 751.4165 796 755.2825 L 796 773.2825 C 796 777.1485 792.866 780.2825 789 780.2825 L 683 780.2825 C 679.134 780.2825 676 777.1485 676 773.2825 L 676 755.2825 C 676 751.4165 679.134 748.2825 683 748.2825 Z" stroke="#4866ae" stroke-linecap="round" stroke-linejoin="round" stroke-width="2"/>
        <text transform="translate(681 756.6085)" fill="black">
          <tspan font-family="Helvetica Neue" font-size="12" fill="black" x="24.004" y="12">Concluded</tspan>
        </text>
      </g>
      <g id="Line_129">
        <line x1="736" y1="714.7955" x2="736" y2="747.2825" stroke="#4866ae" stroke-linecap="round" stroke-linejoin="round" stroke-width="1"/>
      </g>
      <g id="Graphic_132">
        <path d="M 683 822.565 L 789 822.565 C 792.866 822.565 796 825.699 796 829.565 L 796 847.565 C 796 851.431 792.866 854.565 789 854.565 L 683 854.565 C 679.134 854.565 676 851.431 676 847.565 L 676 829.565 C 676 825.699 679.134 822.565 683 822.565 Z" fill="#fcfff9"/>
        <path d="M 683 822.565 L 789 822.565 C 792.866 822.565 796 825.699 796 829.565 L 796 847.565 C 796 851.431 792.866 854.565 789 854.565 L 683 854.565 C 679.134 854.565 676 851.431 676 847.565 L 676 829.565 C 676 825.699 679.134 822.565 683 822.565 Z" stroke="#4866ae" stroke-linecap="round" stroke-linejoin="round" stroke-dasharray="8.0,8.0" stroke-width="2"/>
        <text transform="translate(681 830.891)" fill="black">
          <tspan font-family="Helvetica Neue" font-size="12" fill="black" x="35.008" y="12">Closed</tspan>
        </text>
      </g>
      <g id="Line_131">
        <line x1="736" y1="781.2825" x2="736" y2="821.565" stroke="#4866ae" stroke-linecap="round" stroke-linejoin="round" stroke-width="1"/>
      </g>
      <g id="Graphic_144">
        <path d="M 834 243.21988 L 940 243.21988 C 943.866 243.21988 947 246.35388 947 250.21988 L 947 268.21988 C 947 272.08587 943.866 275.21988 940 275.21988 L 834 275.21988 C 830.134 275.21988 827 272.08587 827 268.21988 L 827 250.21988 C 827 246.35388 830.134 243.21988 834 243.21988 Z" fill="#fcfff9"/>
        <path d="M 834 243.21988 L 940 243.21988 C 943.866 243.21988 947 246.35388 947 250.21988 L 947 268.21988 C 947 272.08587 943.866 275.21988 940 275.21988 L 834 275.21988 C 830.134 275.21988 827 272.08587 827 268.21988 L 827 250.21988 C 827 246.35388 830.134 243.21988 834 243.21988 Z" stroke="#4866ae" stroke-linecap="round" stroke-linejoin="round" stroke-width="2"/>
        <text transform="translate(832 251.54583)" fill="black">
          <tspan font-family="Helvetica Neue" font-size="12" fill="black" x="33.442" y="12">Seeded</tspan>
        </text>
      </g>
      <g id="Line_143">
        <line x1="885.1643" y1="215.07133" x2="886.2931" y2="242.21988" stroke="#4866ae" stroke-linecap="round" stroke-linejoin="round" stroke-width="1"/>
      </g>
      <g id="Graphic_142">
        <path d="M 834 366.6842 L 940 366.6842 C 943.866 366.6842 947 369.8182 947 373.6842 L 947 391.6842 C 947 395.5502 943.866 398.6842 940 398.6842 L 834 398.6842 C 830.134 398.6842 827 395.5502 827 391.6842 L 827 373.6842 C 827 369.8182 830.134 366.6842 834 366.6842 Z" fill="#fcfff9"/>
        <path d="M 834 366.6842 L 940 366.6842 C 943.866 366.6842 947 369.8182 947 373.6842 L 947 391.6842 C 947 395.5502 943.866 398.6842 940 398.6842 L 834 398.6842 C 830.134 398.6842 827 395.5502 827 391.6842 L 827 373.6842 C 827 369.8182 830.134 366.6842 834 366.6842 Z" stroke="#4866ae" stroke-linecap="round" stroke-linejoin="round" stroke-dasharray="8.0,8.0" stroke-width="2"/>
        <text transform="translate(832 375.01017)" fill="black">
          <tspan font-family="Helvetica Neue" font-size="12" fill="black" x="32.896" y="12">Formed</tspan>
        </text>
      </g>
      <g id="Line_141">
        <line x1="887" y1="276.21988" x2="887" y2="365.6842" stroke="#4866ae" stroke-linecap="round" stroke-linejoin="round" stroke-width="1"/>
      </g>
      <g id="Graphic_140">
        <path d="M 834 429.07427 L 940 429.07427 C 943.866 429.07427 947 432.2083 947 436.07427 L 947 454.07427 C 947 457.94027 943.866 461.0743 940 461.0743 L 834 461.0743 C 830.134 461.0743 827 457.94027 827 454.07427 L 827 436.07427 C 827 432.2083 830.134 429.07427 834 429.07427 Z" fill="#fcfff9"/>
        <path d="M 834 429.07427 L 940 429.07427 C 943.866 429.07427 947 432.2083 947 436.07427 L 947 454.07427 C 947 457.94027 943.866 461.0743 940 461.0743 L 834 461.0743 C 830.134 461.0743 827 457.94027 827 454.07427 L 827 436.07427 C 827 432.2083 830.134 429.07427 834 429.07427 Z" stroke="#4866ae" stroke-linecap="round" stroke-linejoin="round" stroke-width="2"/>
        <text transform="translate(832 437.40023)" fill="black">
          <tspan font-family="Helvetica Neue" font-size="12" fill="black" x="16.354" y="12">Collaborating</tspan>
        </text>
      </g>
      <g id="Line_139">
        <line x1="887" y1="399.6842" x2="887" y2="428.07427" stroke="#4866ae" stroke-linecap="round" stroke-linejoin="round" stroke-width="1"/>
      </g>
      <g id="Graphic_138">
        <path d="M 834 491.46433 L 940 491.46433 C 943.866 491.46433 947 494.59834 947 498.46433 L 947 516.46433 C 947 520.3303 943.866 523.46433 940 523.46433 L 834 523.46433 C 830.134 523.46433 827 520.3303 827 516.46433 L 827 498.46433 C 827 494.59834 830.134 491.46433 834 491.46433 Z" fill="#fcfff9"/>
        <path d="M 834 491.46433 L 940 491.46433 C 943.866 491.46433 947 494.59834 947 498.46433 L 947 516.46433 C 947 520.3303 943.866 523.46433 940 523.46433 L 834 523.46433 C 830.134 523.46433 827 520.3303 827 516.46433 L 827 498.46433 C 827 494.59834 830.134 491.46433 834 491.46433 Z" stroke="#4866ae" stroke-linecap="round" stroke-linejoin="round" stroke-dasharray="8.0,8.0" stroke-width="2"/>
        <text transform="translate(832 499.7903)" fill="black">
          <tspan font-family="Helvetica Neue" font-size="12" fill="black" x="23.014" y="12">Performing</tspan>
        </text>
      </g>
      <g id="Line_137">
        <line x1="887" y1="462.0743" x2="887" y2="490.46433" stroke="#4866ae" stroke-linecap="round" stroke-linejoin="round" stroke-width="1"/>
      </g>
      <g id="Graphic_136">
        <path d="M 834 681.7955 L 940 681.7955 C 943.866 681.7955 947 684.9295 947 688.7955 L 947 706.7955 C 947 710.6615 943.866 713.7955 940 713.7955 L 834 713.7955 C 830.134 713.7955 827 710.6615 827 706.7955 L 827 688.7955 C 827 684.9295 830.134 681.7955 834 681.7955 Z" fill="#fcfff9"/>
        <path d="M 834 681.7955 L 940 681.7955 C 943.866 681.7955 947 684.9295 947 688.7955 L 947 706.7955 C 947 710.6615 943.866 713.7955 940 713.7955 L 834 713.7955 C 830.134 713.7955 827 710.6615 827 706.7955 L 827 688.7955 C 827 684.9295 830.134 681.7955 834 681.7955 Z" stroke="#4866ae" stroke-linecap="round" stroke-linejoin="round" stroke-width="2"/>
        <text transform="translate(832 690.12145)" fill="black">
          <tspan font-family="Helvetica Neue" font-size="12" fill="black" x="23.014" y="12">Performing</tspan>
        </text>
      </g>
      <g id="Line_135">
        <line x1="887" y1="524.46433" x2="887" y2="680.7955" stroke="#4866ae" stroke-linecap="round" stroke-linejoin="round" stroke-width="1"/>
      </g>
      <g id="Graphic_134">
        <path d="M 834 822.565 L 940 822.565 C 943.866 822.565 947 825.699 947 829.565 L 947 847.565 C 947 851.431 943.866 854.565 940 854.565 L 834 854.565 C 830.134 854.565 827 851.431 827 847.565 L 827 829.565 C 827 825.699 830.134 822.565 834 822.565 Z" fill="#fcfff9"/>
        <path d="M 834 822.565 L 940 822.565 C 943.866 822.565 947 825.699 947 829.565 L 947 847.565 C 947 851.431 943.866 854.565 940 854.565 L 834 854.565 C 830.134 854.565 827 851.431 827 847.565 L 827 829.565 C 827 825.699 830.134 822.565 834 822.565 Z" stroke="#4866ae" stroke-linecap="round" stroke-linejoin="round" stroke-dasharray="8.0,8.0" stroke-width="2"/>
        <text transform="translate(832 830.891)" fill="black">
          <tspan font-family="Helvetica Neue" font-size="12" fill="black" x="25.222" y="12">Adjourned</tspan>
        </text>
      </g>
      <g id="Line_133">
        <line x1="887" y1="714.7955" x2="887" y2="821.565" stroke="#4866ae" stroke-linecap="round" stroke-linejoin="round" stroke-width="1"/>
      </g>
      <g id="Graphic_156">
        <path d="M 985 304.29415 L 1091 304.29415 C 1094.866 304.29415 1098 307.42816 1098 311.29415 L 1098 329.29415 C 1098 333.16014 1094.866 336.29415 1091 336.29415 L 985 336.29415 C 981.134 336.29415 978 333.16014 978 329.29415 L 978 311.29415 C 978 307.42816 981.134 304.29415 985 304.29415 Z" fill="#fcfff9"/>
        <path d="M 985 304.29415 L 1091 304.29415 C 1094.866 304.29415 1098 307.42816 1098 311.29415 L 1098 329.29415 C 1098 333.16014 1094.866 336.29415 1091 336.29415 L 985 336.29415 C 981.134 336.29415 978 333.16014 978 329.29415 L 978 311.29415 C 978 307.42816 981.134 304.29415 985 304.29415 Z" stroke="#4866ae" stroke-linecap="round" stroke-linejoin="round" stroke-width="2"/>
        <text transform="translate(983 304.94606)" fill="black">
          <tspan font-family="Helvetica Neue" font-size="12" fill="black" x="26.686" y="12">Principles </tspan>
          <tspan font-family="Helvetica Neue" font-size="12" fill="black" x="21.682" y="27.348083">Established</tspan>
        </text>
      </g>
      <g id="Line_155">
        <line x1="1035.6305" y1="215.07133" x2="1037.6172" y2="303.29415" stroke="#4866ae" stroke-linecap="round" stroke-linejoin="round" stroke-width="1"/>
      </g>
      <g id="Graphic_154">
        <path d="M 985 366.6842 L 1091 366.6842 C 1094.866 366.6842 1098 369.8182 1098 373.6842 L 1098 391.6842 C 1098 395.5502 1094.866 398.6842 1091 398.6842 L 985 398.6842 C 981.134 398.6842 978 395.5502 978 391.6842 L 978 373.6842 C 978 369.8182 981.134 366.6842 985 366.6842 Z" fill="#fcfff9"/>
        <path d="M 985 366.6842 L 1091 366.6842 C 1094.866 366.6842 1098 369.8182 1098 373.6842 L 1098 391.6842 C 1098 395.5502 1094.866 398.6842 1091 398.6842 L 985 398.6842 C 981.134 398.6842 978 395.5502 978 391.6842 L 978 373.6842 C 978 369.8182 981.134 366.6842 985 366.6842 Z" stroke="#4866ae" stroke-linecap="round" stroke-linejoin="round" stroke-dasharray="8.0,8.0" stroke-width="2"/>
        <text transform="translate(983 367.33613)" fill="black">
          <tspan font-family="Helvetica Neue" font-size="12" fill="black" x="22.666" y="12">Foundation </tspan>
          <tspan font-family="Helvetica Neue" font-size="12" fill="black" x="21.682" y="27.348083">Established</tspan>
        </text>
      </g>
      <g id="Line_153">
        <line x1="1038" y1="337.29415" x2="1038" y2="365.6842" stroke="#4866ae" stroke-linecap="round" stroke-linejoin="round" stroke-width="1"/>
      </g>
      <g id="Graphic_152">
        <path d="M 985 429.07427 L 1091 429.07427 C 1094.866 429.07427 1098 432.2083 1098 436.07427 L 1098 454.07427 C 1098 457.94027 1094.866 461.0743 1091 461.0743 L 985 461.0743 C 981.134 461.0743 978 457.94027 978 454.07427 L 978 436.07427 C 978 432.2083 981.134 429.07427 985 429.07427 Z" fill="#fcfff9"/>
        <path d="M 985 429.07427 L 1091 429.07427 C 1094.866 429.07427 1098 432.2083 1098 436.07427 L 1098 454.07427 C 1098 457.94027 1094.866 461.0743 1091 461.0743 L 985 461.0743 C 981.134 461.0743 978 457.94027 978 454.07427 L 978 436.07427 C 978 432.2083 981.134 429.07427 985 429.07427 Z" stroke="#4866ae" stroke-linecap="round" stroke-linejoin="round" stroke-width="2"/>
        <text transform="translate(983 437.40023)" fill="black">
          <tspan font-family="Helvetica Neue" font-size="12" fill="black" x="36.892" y="12">In Use</tspan>
        </text>
      </g>
      <g id="Line_151">
        <line x1="1038" y1="399.6842" x2="1038" y2="428.07427" stroke="#4866ae" stroke-linecap="round" stroke-linejoin="round" stroke-width="1"/>
      </g>
      <g id="Graphic_150">
        <path d="M 985 491.46433 L 1091 491.46433 C 1094.866 491.46433 1098 494.59834 1098 498.46433 L 1098 516.46433 C 1098 520.3303 1094.866 523.46433 1091 523.46433 L 985 523.46433 C 981.134 523.46433 978 520.3303 978 516.46433 L 978 498.46433 C 978 494.59834 981.134 491.46433 985 491.46433 Z" fill="#fcfff9"/>
        <path d="M 985 491.46433 L 1091 491.46433 C 1094.866 491.46433 1098 494.59834 1098 498.46433 L 1098 516.46433 C 1098 520.3303 1094.866 523.46433 1091 523.46433 L 985 523.46433 C 981.134 523.46433 978 520.3303 978 516.46433 L 978 498.46433 C 978 494.59834 981.134 491.46433 985 491.46433 Z" stroke="#4866ae" stroke-linecap="round" stroke-linejoin="round" stroke-dasharray="8.0,8.0" stroke-width="2"/>
        <text transform="translate(983 499.7903)" fill="black">
          <tspan font-family="Helvetica Neue" font-size="12" fill="black" x="32.122" y="12">In Place</tspan>
        </text>
      </g>
      <g id="Line_149">
        <line x1="1038" y1="462.0743" x2="1038" y2="490.46433" stroke="#4866ae" stroke-linecap="round" stroke-linejoin="round" stroke-width="1"/>
      </g>
      <g id="Graphic_148">
        <path d="M 985 681.7955 L 1091 681.7955 C 1094.866 681.7955 1098 684.9295 1098 688.7955 L 1098 706.7955 C 1098 710.6615 1094.866 713.7955 1091 713.7955 L 985 713.7955 C 981.134 713.7955 978 710.6615 978 706.7955 L 978 688.7955 C 978 684.9295 981.134 681.7955 985 681.7955 Z" fill="#fcfff9"/>
        <path d="M 985 681.7955 L 1091 681.7955 C 1094.866 681.7955 1098 684.9295 1098 688.7955 L 1098 706.7955 C 1098 710.6615 1094.866 713.7955 1091 713.7955 L 985 713.7955 C 981.134 713.7955 978 710.6615 978 706.7955 L 978 688.7955 C 978 684.9295 981.134 681.7955 985 681.7955 Z" stroke="#4866ae" stroke-linecap="round" stroke-linejoin="round" stroke-dasharray="8.0,8.0" stroke-width="2"/>
        <text transform="translate(983 690.12145)" fill="black">
          <tspan font-family="Helvetica Neue" font-size="12" fill="black" x="17.932" y="12">Working Well</tspan>
        </text>
      </g>
      <g id="Line_147">
        <line x1="1038" y1="524.46433" x2="1038" y2="680.7955" stroke="#4866ae" stroke-linecap="round" stroke-linejoin="round" stroke-width="1"/>
      </g>
      <g id="Graphic_146">
        <path d="M 985 822.565 L 1091 822.565 C 1094.866 822.565 1098 825.699 1098 829.565 L 1098 847.565 C 1098 851.431 1094.866 854.565 1091 854.565 L 985 854.565 C 981.134 854.565 978 851.431 978 847.565 L 978 829.565 C 978 825.699 981.134 822.565 985 822.565 Z" fill="#fcfff9"/>
        <path d="M 985 822.565 L 1091 822.565 C 1094.866 822.565 1098 825.699 1098 829.565 L 1098 847.565 C 1098 851.431 1094.866 854.565 1091 854.565 L 985 854.565 C 981.134 854.565 978 851.431 978 847.565 L 978 829.565 C 978 825.699 981.134 822.565 985 822.565 Z" stroke="#4866ae" stroke-linecap="round" stroke-linejoin="round" stroke-dasharray="8.0,8.0" stroke-width="2"/>
        <text transform="translate(983 830.891)" fill="black">
          <tspan font-family="Helvetica Neue" font-size="12" fill="black" x="34.228" y="12">Retired</tspan>
        </text>
      </g>
      <g id="Line_145">
        <line x1="1038" y1="714.7955" x2="1038" y2="821.565" stroke="#4866ae" stroke-linecap="round" stroke-linejoin="round" stroke-width="1"/>
      </g>
      <g id="Line_157">
        <line x1="239" y1="276.21988" x2="239" y2="303.29415" stroke="#409264" stroke-linecap="round" stroke-linejoin="round" stroke-width="1"/>
      </g>
      <g id="Line_158">
        <line x1="239" y1="337.29415" x2="239" y2="365.6842" stroke="#409264" stroke-linecap="round" stroke-linejoin="round" stroke-width="1"/>
      </g>
      <g id="Line_159">
        <line x1="239" y1="399.6842" x2="239" y2="490.46433" stroke="#409264" stroke-linecap="round" stroke-linejoin="round" stroke-width="1"/>
      </g>
      <g id="Line_160">
        <line x1="239" y1="524.46433" x2="239" y2="680.7955" stroke="#409264" stroke-linecap="round" stroke-linejoin="round" stroke-width="1"/>
      </g>
      <g id="Line_161">
        <line x1="240.53866" y1="821.565" x2="239.21134" y2="714.7955" stroke="#409264" stroke-linecap="round" stroke-linejoin="round" stroke-width="1"/>
      </g>
      <g id="Line_162">
        <line x1="89" y1="337.29415" x2="89" y2="365.6842" stroke="#409264" stroke-linecap="round" stroke-linejoin="round" stroke-width="1"/>
      </g>
      <g id="Line_163">
        <line x1="89" y1="276.21988" x2="89" y2="303.29415" stroke="#409264" stroke-linecap="round" stroke-linejoin="round" stroke-width="1"/>
      </g>
    </g>
  </g>
</svg>
