<?xml version="1.0" encoding="UTF-8" standalone="no"?>
<!DOCTYPE svg PUBLIC "-//W3C//DTD SVG 1.1//EN"
 "http://www.w3.org/Graphics/SVG/1.1/DTD/svg11.dtd">
<!-- Generated by graphviz version 12.1.2 (20240928.0832)
 -->
<!-- Title: RuleTree Pages: 1 -->
<svg width="801pt" height="811pt"
 viewBox="0.00 0.00 801.00 810.68" xmlns="http://www.w3.org/2000/svg" xmlns:xlink="http://www.w3.org/1999/xlink">
<g id="graph0" class="graph" transform="scale(1 1) rotate(0) translate(4 806.68)">
<title>RuleTree</title>
<polygon fill="black" stroke="none" points="-4,4 -4,-806.68 797,-806.68 797,4 -4,4"/>
<g id="clust1" class="cluster">
<title>cluster_rs</title>
<polygon fill="black" stroke="#80bfff" points="8,-316.68 8,-794.68 695,-794.68 695,-316.68 8,-316.68"/>
<text text-anchor="middle" x="351.5" y="-775.48" font-family="Helvetica,sans-Serif" font-size="16.00" fill="#80bfff">Rule Set Learners</text>
</g>
<g id="clust3" class="cluster">
<title>cluster_gc</title>
<polygon fill="black" stroke="#ffcc66" stroke-dasharray="5,2" points="16,-324.68 16,-509.68 673.12,-509.68 673.12,-324.68 16,-324.68"/>
<text text-anchor="middle" x="344.56" y="-490.48" font-family="Helvetica,sans-Serif" font-size="16.00" fill="#ffcc66">Genetic / Evolutionary</text>
</g>
<g id="clust5" class="cluster">
<title>cluster_rt</title>
<polygon fill="black" stroke="#80ffb3" points="152.38,-9.68 152.38,-308.68 785,-308.68 785,-9.68 152.38,-9.68"/>
<text text-anchor="middle" x="468.69" y="-289.48" font-family="Helvetica,sans-Serif" font-size="16.00" fill="#80ffb3">Rule Tree / List Learners</text>
</g>
<g id="clust7" class="cluster">
<title>cluster_rl</title>
<polygon fill="black" stroke="#cc99ff" stroke-dasharray="5,2" points="398,-29.68 398,-160.68 545.25,-160.68 545.25,-29.68 398,-29.68"/>
<text text-anchor="middle" x="471.62" y="-141.48" font-family="Helvetica,sans-Serif" font-size="16.00" fill="#cc99ff">Rule List Learners</text>
</g>
<!-- SLIPPER -->
<g id="node1" class="node">
<title>SLIPPER</title>
<text text-anchor="middle" x="317.5" y="-698.08" font-family="Helvetica,sans-Serif" font-size="13.00" fill="white">SLIPPER</text>
</g>
<!-- RIPPER -->
<g id="node5" class="node">
<title>RIPPER</title>
<text text-anchor="middle" x="471.12" y="-671.08" font-family="Helvetica,sans-Serif" font-size="13.00" fill="white">RIPPER</text>
</g>
<!-- SLIPPER&#45;&gt;RIPPER -->
<g id="edge10" class="edge">
<title>SLIPPER&#45;&gt;RIPPER</title>
<path fill="none" stroke="#888888" stroke-dasharray="5,2" d="M353.67,-697.41C375.52,-693.52 403.77,-688.49 426.97,-684.36"/>
<polygon fill="#888888" stroke="#888888" points="427.53,-687.82 436.76,-682.62 426.3,-680.93 427.53,-687.82"/>
</g>
<!-- C45rules -->
<g id="node6" class="node">
<title>C45rules</title>
<text text-anchor="middle" x="638.12" y="-585.08" font-family="Helvetica,sans-Serif" font-size="13.00" fill="white">C4.5rules</text>
</g>
<!-- SLIPPER&#45;&gt;C45rules -->
<g id="edge11" class="edge">
<title>SLIPPER&#45;&gt;C45rules</title>
<path fill="none" stroke="#888888" stroke-dasharray="5,2" d="M342.12,-685.95C361.08,-672.05 386.37,-654.31 398,-649.68 459.6,-625.14 481.22,-642.9 545.25,-625.68 560.35,-621.61 576.42,-615.97 590.82,-610.41"/>
<polygon fill="#888888" stroke="#888888" points="592.05,-613.69 600.06,-606.75 589.47,-607.18 592.05,-613.69"/>
</g>
<!-- RuleFit -->
<g id="node2" class="node">
<title>RuleFit</title>
<text text-anchor="middle" x="317.5" y="-590.08" font-family="Helvetica,sans-Serif" font-size="13.00" fill="white">RuleFit</text>
</g>
<!-- MLRules -->
<g id="node3" class="node">
<title>MLRules</title>
<text text-anchor="middle" x="191.62" y="-607.08" font-family="Helvetica,sans-Serif" font-size="13.00" fill="white">MLRules</text>
</g>
<!-- MLRules&#45;&gt;SLIPPER -->
<g id="edge14" class="edge">
<title>MLRules&#45;&gt;SLIPPER</title>
<path fill="none" stroke="#888888" stroke-dasharray="5,2" d="M217.1,-630.66C235.93,-644.49 262.17,-663.76 282.95,-679.03"/>
<polygon fill="#888888" stroke="#888888" points="280.73,-681.74 290.86,-684.84 284.87,-676.1 280.73,-681.74"/>
</g>
<!-- MLRules&#45;&gt;RuleFit -->
<g id="edge15" class="edge">
<title>MLRules&#45;&gt;RuleFit</title>
<path fill="none" stroke="#888888" stroke-dasharray="5,2" d="M225.82,-608.12C241.66,-605.95 260.72,-603.33 277.27,-601.06"/>
<polygon fill="#888888" stroke="#888888" points="277.32,-604.59 286.76,-599.76 276.37,-597.65 277.32,-604.59"/>
</g>
<!-- RuleKit -->
<g id="node4" class="node">
<title>RuleKit</title>
<text text-anchor="middle" x="63.12" y="-698.08" font-family="Helvetica,sans-Serif" font-size="13.00" fill="white">RuleKit</text>
</g>
<!-- RuleKit&#45;&gt;RIPPER -->
<g id="edge28" class="edge">
<title>RuleKit&#45;&gt;RIPPER</title>
<path fill="none" stroke="#888888" stroke-dasharray="5,2" d="M92.7,-716.74C106.21,-722.21 122.74,-727.94 138.25,-730.68 232.68,-747.34 260.37,-751.38 354,-730.68 380.99,-724.71 409.15,-711.8 430.98,-700.11"/>
<polygon fill="#888888" stroke="#888888" points="432.45,-703.29 439.52,-695.4 429.07,-697.16 432.45,-703.29"/>
</g>
<!-- M5Rules -->
<g id="node7" class="node">
<title>M5Rules</title>
<text text-anchor="middle" x="191.62" y="-698.08" font-family="Helvetica,sans-Serif" font-size="13.00" fill="white">M5Rules</text>
</g>
<!-- RuleKit&#45;&gt;M5Rules -->
<g id="edge29" class="edge">
<title>RuleKit&#45;&gt;M5Rules</title>
<path fill="none" stroke="#888888" stroke-dasharray="5,2" d="M92.83,-703.68C108.62,-703.68 128.54,-703.68 146.29,-703.68"/>
<polygon fill="#888888" stroke="#888888" points="146.05,-707.18 156.05,-703.68 146.05,-700.18 146.05,-707.18"/>
</g>
<!-- CN2Unordered -->
<g id="node10" class="node">
<title>CN2Unordered</title>
<text text-anchor="middle" x="191.62" y="-530.08" font-family="Helvetica,sans-Serif" font-size="13.00" fill="white">CN2Unordered</text>
</g>
<!-- RuleKit&#45;&gt;CN2Unordered -->
<g id="edge27" class="edge">
<title>RuleKit&#45;&gt;CN2Unordered</title>
<path fill="none" stroke="#888888" stroke-dasharray="5,2" d="M73.43,-685.97C86.38,-662.06 111.32,-618.66 138.25,-585.68 145.14,-577.24 153.37,-568.78 161.24,-561.29"/>
<polygon fill="#888888" stroke="#888888" points="163.49,-563.98 168.44,-554.61 158.73,-558.84 163.49,-563.98"/>
</g>
<!-- RIPPER&#45;&gt;C45rules -->
<g id="edge19" class="edge">
<title>RIPPER&#45;&gt;C45rules</title>
<path fill="none" stroke="#888888" stroke-dasharray="5,2" d="M504.13,-663.06C517.04,-657.35 531.99,-650.47 545.25,-643.68 562.89,-634.64 581.94,-623.83 598.1,-614.33"/>
<polygon fill="#888888" stroke="#888888" points="599.62,-617.5 606.44,-609.39 596.06,-611.48 599.62,-617.5"/>
</g>
<!-- C45 -->
<g id="node28" class="node">
<title>C45</title>
<text text-anchor="middle" x="638.12" y="-178.08" font-family="Helvetica,sans-Serif" font-size="13.00" fill="white">C4.5 / C5.0</text>
</g>
<!-- C45rules&#45;&gt;C45 -->
<g id="edge13" class="edge">
<title>C45rules&#45;&gt;C45</title>
<path fill="none" stroke="#666666" stroke-dasharray="1,5" d="M601.5,-580.41C588.34,-574.77 574.88,-566.26 567.25,-553.68 549.17,-523.84 552.04,-271.08 567.25,-239.68 574.97,-223.73 589.69,-210.95 603.72,-201.65"/>
</g>
<!-- PART -->
<g id="node8" class="node">
<title>PART</title>
<text text-anchor="middle" x="317.5" y="-644.08" font-family="Helvetica,sans-Serif" font-size="13.00" fill="white">PART</text>
</g>
<!-- M5Rules&#45;&gt;PART -->
<g id="edge30" class="edge">
<title>M5Rules&#45;&gt;PART</title>
<path fill="none" stroke="#aaaaaa" d="M225.82,-689.21C242.68,-681.86 263.18,-672.92 280.42,-665.4"/>
<polygon fill="#aaaaaa" stroke="#aaaaaa" points="281.52,-668.74 289.29,-661.54 278.72,-662.33 281.52,-668.74"/>
</g>
<!-- PART&#45;&gt;RIPPER -->
<g id="edge24" class="edge">
<title>PART&#45;&gt;RIPPER</title>
<path fill="none" stroke="#888888" stroke-dasharray="5,2" d="M344.22,-654.26C366.92,-658.3 400.46,-664.27 427.21,-669.04"/>
<polygon fill="#888888" stroke="#888888" points="426.26,-672.42 436.72,-670.73 427.49,-665.53 426.26,-672.42"/>
</g>
<!-- PART&#45;&gt;C45rules -->
<g id="edge23" class="edge">
<title>PART&#45;&gt;C45rules</title>
<path fill="none" stroke="#888888" stroke-dasharray="5,2" d="M344.25,-644.35C359.8,-641.17 380.02,-637.1 398,-633.68 464.61,-620.99 541.85,-607.28 590.11,-598.84"/>
<polygon fill="#888888" stroke="#888888" points="590.69,-602.29 599.94,-597.12 589.49,-595.39 590.69,-602.29"/>
</g>
<!-- AQ -->
<g id="node9" class="node">
<title>AQ</title>
<text text-anchor="middle" x="638.12" y="-530.08" font-family="Helvetica,sans-Serif" font-size="13.00" fill="white">AQ / INDUCE</text>
</g>
<!-- CN2Unordered&#45;&gt;AQ -->
<g id="edge20" class="edge">
<title>CN2Unordered&#45;&gt;AQ</title>
<path fill="none" stroke="#888888" stroke-dasharray="5,2" d="M244.92,-535.68C328.27,-535.68 490.73,-535.68 578.12,-535.68"/>
<polygon fill="#888888" stroke="#888888" points="577.91,-539.18 587.9,-535.68 577.9,-532.18 577.91,-539.18"/>
</g>
<!-- CN2 -->
<g id="node27" class="node">
<title>CN2</title>
<text text-anchor="middle" x="638.12" y="-252.08" font-family="Helvetica,sans-Serif" font-size="13.00" fill="white">CN2</text>
</g>
<!-- CN2Unordered&#45;&gt;CN2 -->
<g id="edge12" class="edge">
<title>CN2Unordered&#45;&gt;CN2</title>
<path fill="none" stroke="#666666" stroke-dasharray="1,5" d="M240.93,-517.97C242.4,-516.64 243.76,-515.21 245,-513.68 299.78,-445.76 219.01,-382.09 281,-320.68 372.44,-230.09 545.8,-244.18 611.24,-253.4"/>
</g>
<!-- logicGP -->
<g id="node11" class="node">
<title>logicGP</title>
<text text-anchor="middle" x="63.12" y="-345.08" font-family="Helvetica,sans-Serif" font-size="13.00" fill="white">logicGP</text>
</g>
<!-- GPAS -->
<g id="node12" class="node">
<title>GPAS</title>
<text text-anchor="middle" x="191.62" y="-345.08" font-family="Helvetica,sans-Serif" font-size="13.00" fill="white">GPAS</text>
</g>
<!-- logicGP&#45;&gt;GPAS -->
<g id="edge1" class="edge">
<title>logicGP&#45;&gt;GPAS</title>
<path fill="none" stroke="#aaaaaa" d="M94.1,-350.68C111.81,-350.68 134.37,-350.68 153.24,-350.68"/>
<polygon fill="#aaaaaa" stroke="#aaaaaa" points="153.2,-354.18 163.2,-350.68 153.2,-347.18 153.2,-354.18"/>
</g>
<!-- logicDT -->
<g id="node22" class="node">
<title>logicDT</title>
<text text-anchor="middle" x="191.62" y="-235.08" font-family="Helvetica,sans-Serif" font-size="13.00" fill="white">logicDT</text>
</g>
<!-- logicGP&#45;&gt;logicDT -->
<g id="edge2" class="edge">
<title>logicGP&#45;&gt;logicDT</title>
<path fill="none" stroke="#888888" stroke-dasharray="5,2" d="M84.73,-332.76C105.59,-314.62 138.03,-286.41 161.51,-265.99"/>
<polygon fill="#888888" stroke="#888888" points="163.64,-268.78 168.89,-259.58 159.04,-263.5 163.64,-268.78"/>
</g>
<!-- ExSTraCS -->
<g id="node13" class="node">
<title>ExSTraCS</title>
<text text-anchor="middle" x="63.12" y="-399.08" font-family="Helvetica,sans-Serif" font-size="13.00" fill="white">ExSTraCS</text>
</g>
<!-- UCS -->
<g id="node14" class="node">
<title>UCS</title>
<text text-anchor="middle" x="191.62" y="-399.08" font-family="Helvetica,sans-Serif" font-size="13.00" fill="white">UCS</text>
</g>
<!-- ExSTraCS&#45;&gt;UCS -->
<g id="edge6" class="edge">
<title>ExSTraCS&#45;&gt;UCS</title>
<path fill="none" stroke="#aaaaaa" d="M102.08,-404.68C118.36,-404.68 137.32,-404.68 153.5,-404.68"/>
<polygon fill="#aaaaaa" stroke="#aaaaaa" points="153.21,-408.18 163.21,-404.68 153.21,-401.18 153.21,-408.18"/>
</g>
<!-- UCS&#45;&gt;C45rules -->
<g id="edge7" class="edge">
<title>UCS&#45;&gt;C45rules</title>
<path fill="none" stroke="#888888" stroke-dasharray="5,2" d="M218.44,-415.48C291.07,-445.87 497.89,-532.42 590.86,-571.32"/>
<polygon fill="#888888" stroke="#888888" points="589.38,-574.49 599.96,-575.13 592.09,-568.04 589.38,-574.49"/>
</g>
<!-- UCS&#45;&gt;PART -->
<g id="edge8" class="edge">
<title>UCS&#45;&gt;PART</title>
<path fill="none" stroke="#888888" stroke-dasharray="5,2" d="M218.55,-412.55C228.24,-416.74 238.46,-422.9 245,-431.68 296.63,-500.94 235.6,-549.19 281,-622.68 281.55,-623.57 282.15,-624.44 282.77,-625.3"/>
<polygon fill="#888888" stroke="#888888" points="280.18,-627.65 289.55,-632.59 285.31,-622.88 280.18,-627.65"/>
</g>
<!-- XCS -->
<g id="node15" class="node">
<title>XCS</title>
<text text-anchor="middle" x="317.5" y="-399.08" font-family="Helvetica,sans-Serif" font-size="13.00" fill="white">XCS</text>
</g>
<!-- UCS&#45;&gt;XCS -->
<g id="edge9" class="edge">
<title>UCS&#45;&gt;XCS</title>
<path fill="none" stroke="#aaaaaa" d="M218.59,-404.68C236.18,-404.68 259.7,-404.68 279.27,-404.68"/>
<polygon fill="#aaaaaa" stroke="#aaaaaa" points="279.05,-408.18 289.05,-404.68 279.05,-401.18 279.05,-408.18"/>
</g>
<!-- GOFER -->
<g id="node20" class="node">
<title>GOFER</title>
<text text-anchor="middle" x="471.12" y="-399.08" font-family="Helvetica,sans-Serif" font-size="13.00" fill="white">GOFER&#45;1</text>
</g>
<!-- XCS&#45;&gt;GOFER -->
<g id="edge42" class="edge">
<title>XCS&#45;&gt;GOFER</title>
<path fill="none" stroke="#aaaaaa" d="M344.22,-404.68C365.62,-404.68 396.64,-404.68 422.54,-404.68"/>
<polygon fill="#aaaaaa" stroke="#aaaaaa" points="422.52,-408.18 432.52,-404.68 422.52,-401.18 422.52,-408.18"/>
</g>
<!-- LS1 -->
<g id="node16" class="node">
<title>LS1</title>
<text text-anchor="middle" x="638.12" y="-453.08" font-family="Helvetica,sans-Serif" font-size="13.00" fill="white">LS&#45;1</text>
</g>
<!-- GAssist -->
<g id="node17" class="node">
<title>GAssist</title>
<text text-anchor="middle" x="191.62" y="-453.08" font-family="Helvetica,sans-Serif" font-size="13.00" fill="white">GAssist</text>
</g>
<!-- GAssist&#45;&gt;C45rules -->
<g id="edge36" class="edge">
<title>GAssist&#45;&gt;C45rules</title>
<path fill="none" stroke="#888888" stroke-dasharray="5,2" d="M222.29,-467.23C230.28,-470.53 238.5,-474.92 245,-480.68 269.15,-502.05 254.23,-525.7 281,-543.68 330.57,-576.97 505.24,-586.75 590.13,-589.57"/>
<polygon fill="#888888" stroke="#888888" points="589.87,-593.06 599.97,-589.88 590.09,-586.07 589.87,-593.06"/>
</g>
<!-- GAssist&#45;&gt;PART -->
<g id="edge37" class="edge">
<title>GAssist&#45;&gt;PART</title>
<path fill="none" stroke="#888888" stroke-dasharray="5,2" d="M222.28,-465.73C230.65,-469.02 239.08,-473.8 245,-480.68 287.47,-530.02 245.08,-568.38 281,-622.68 281.58,-623.55 282.2,-624.41 282.85,-625.25"/>
<polygon fill="#888888" stroke="#888888" points="280.31,-627.66 289.75,-632.47 285.37,-622.82 280.31,-627.66"/>
</g>
<!-- GAssist&#45;&gt;XCS -->
<g id="edge35" class="edge">
<title>GAssist&#45;&gt;XCS</title>
<path fill="none" stroke="#888888" stroke-dasharray="5,2" d="M222.3,-445.74C239.77,-438.13 261.99,-428.44 280.47,-420.39"/>
<polygon fill="#888888" stroke="#888888" points="281.69,-423.67 289.46,-416.47 278.89,-417.25 281.69,-423.67"/>
</g>
<!-- GABIL -->
<g id="node18" class="node">
<title>GABIL</title>
<text text-anchor="middle" x="471.12" y="-453.08" font-family="Helvetica,sans-Serif" font-size="13.00" fill="white">GABIL</text>
</g>
<!-- GAssist&#45;&gt;GABIL -->
<g id="edge38" class="edge">
<title>GAssist&#45;&gt;GABIL</title>
<path fill="none" stroke="#aaaaaa" d="M222.32,-458.68C273.12,-458.68 376.62,-458.68 432.43,-458.68"/>
<polygon fill="#aaaaaa" stroke="#aaaaaa" points="432.4,-462.18 442.4,-458.68 432.4,-455.18 432.4,-462.18"/>
</g>
<!-- GABIL&#45;&gt;C45rules -->
<g id="edge39" class="edge">
<title>GABIL&#45;&gt;C45rules</title>
<path fill="none" stroke="#888888" stroke-dasharray="5,2" d="M498.48,-461.56C513.54,-464.35 532.01,-469.85 545.25,-480.68 577.27,-506.85 560.55,-532.9 589.25,-562.68 590.38,-563.85 591.56,-564.98 592.8,-566.09"/>
<polygon fill="#888888" stroke="#888888" points="590.26,-568.54 600.29,-571.95 594.57,-563.03 590.26,-568.54"/>
</g>
<!-- GABIL&#45;&gt;AQ -->
<g id="edge40" class="edge">
<title>GABIL&#45;&gt;AQ</title>
<path fill="none" stroke="#888888" stroke-dasharray="5,2" d="M498.35,-464.19C512.68,-467.78 530.46,-473.2 545.25,-480.68 564.26,-490.28 567.6,-498.7 586.88,-511.7"/>
<polygon fill="#888888" stroke="#888888" points="584.97,-514.64 595.3,-516.99 588.69,-508.71 584.97,-514.64"/>
</g>
<!-- GABIL&#45;&gt;LS1 -->
<g id="edge41" class="edge">
<title>GABIL&#45;&gt;LS1</title>
<path fill="none" stroke="#aaaaaa" d="M498.27,-458.68C525.75,-458.68 569.2,-458.68 600.17,-458.68"/>
<polygon fill="#aaaaaa" stroke="#aaaaaa" points="599.86,-462.18 609.86,-458.68 599.86,-455.18 599.86,-462.18"/>
</g>
<!-- BioHEL -->
<g id="node19" class="node">
<title>BioHEL</title>
<text text-anchor="middle" x="63.12" y="-453.08" font-family="Helvetica,sans-Serif" font-size="13.00" fill="white">BioHEL</text>
</g>
<!-- BioHEL&#45;&gt;C45rules -->
<g id="edge45" class="edge">
<title>BioHEL&#45;&gt;C45rules</title>
<path fill="none" stroke="#888888" stroke-dasharray="5,2" d="M93.68,-472.23C96.92,-474.67 99.89,-477.48 102.25,-480.68 145.23,-539.01 89.94,-585.68 138.25,-639.68 171.73,-677.1 205.28,-645.96 245,-676.68 267.82,-694.32 255.57,-717.07 281,-730.68 333.26,-758.65 486,-737.15 545.25,-703.68 580.43,-683.81 607.48,-644.72 622.85,-618.14"/>
<polygon fill="#888888" stroke="#888888" points="625.79,-620.05 627.61,-609.62 619.68,-616.64 625.79,-620.05"/>
</g>
<!-- BioHEL&#45;&gt;GAssist -->
<g id="edge44" class="edge">
<title>BioHEL&#45;&gt;GAssist</title>
<path fill="none" stroke="#aaaaaa" d="M93.78,-458.68C110.44,-458.68 131.47,-458.68 149.67,-458.68"/>
<polygon fill="#aaaaaa" stroke="#aaaaaa" points="149.64,-462.18 159.64,-458.68 149.64,-455.18 149.64,-462.18"/>
</g>
<!-- CS1 -->
<g id="node21" class="node">
<title>CS1</title>
<text text-anchor="middle" x="638.12" y="-399.08" font-family="Helvetica,sans-Serif" font-size="13.00" fill="white">CS&#45;1</text>
</g>
<!-- GOFER&#45;&gt;CS1 -->
<g id="edge43" class="edge">
<title>GOFER&#45;&gt;CS1</title>
<path fill="none" stroke="#aaaaaa" d="M508.33,-404.68C535.44,-404.68 572.4,-404.68 599.78,-404.68"/>
<polygon fill="#aaaaaa" stroke="#aaaaaa" points="599.72,-408.18 609.72,-404.68 599.72,-401.18 599.72,-408.18"/>
</g>
<!-- logicDT&#45;&gt;RuleFit -->
<g id="edge5" class="edge">
<title>logicDT&#45;&gt;RuleFit</title>
<path fill="none" stroke="#888888" stroke-dasharray="5,2" d="M207.35,-258.58C219.33,-274.08 235.72,-297.57 245,-320.68 277.53,-401.64 255.51,-430.23 281,-513.68 286.67,-532.24 295.28,-552.25 302.6,-567.85"/>
<polygon fill="#888888" stroke="#888888" points="299.27,-569.01 306.75,-576.51 305.58,-565.98 299.27,-569.01"/>
</g>
<!-- DL85 -->
<g id="node23" class="node">
<title>DL85</title>
<text text-anchor="middle" x="317.5" y="-181.08" font-family="Helvetica,sans-Serif" font-size="13.00" fill="white">DL8.5</text>
</g>
<!-- logicDT&#45;&gt;DL85 -->
<g id="edge4" class="edge">
<title>logicDT&#45;&gt;DL85</title>
<path fill="none" stroke="#888888" stroke-dasharray="5,2" d="M222.3,-227.74C239.77,-220.13 261.99,-210.44 280.47,-202.39"/>
<polygon fill="#888888" stroke="#888888" points="281.69,-205.67 289.46,-198.47 278.89,-199.25 281.69,-205.67"/>
</g>
<!-- CART -->
<g id="node29" class="node">
<title>CART</title>
<text text-anchor="middle" x="750" y="-70.08" font-family="Helvetica,sans-Serif" font-size="13.00" fill="white">CART</text>
</g>
<!-- logicDT&#45;&gt;CART -->
<g id="edge3" class="edge">
<title>logicDT&#45;&gt;CART</title>
<path fill="none" stroke="#888888" stroke-dasharray="5,2" d="M222.43,-240.73C324.63,-240.67 656.69,-238.31 695,-210.68 729.13,-186.06 741.71,-136.26 746.33,-104.51"/>
<polygon fill="#888888" stroke="#888888" points="749.77,-105.18 747.55,-94.82 742.83,-104.3 749.77,-105.18"/>
</g>
<!-- DL8 -->
<g id="node24" class="node">
<title>DL8</title>
<text text-anchor="middle" x="471.12" y="-181.08" font-family="Helvetica,sans-Serif" font-size="13.00" fill="white">DL8</text>
</g>
<!-- DL85&#45;&gt;DL8 -->
<g id="edge25" class="edge">
<title>DL85&#45;&gt;DL8</title>
<path fill="none" stroke="#aaaaaa" d="M344.22,-186.68C368.62,-186.68 405.54,-186.68 433.1,-186.68"/>
<polygon fill="#aaaaaa" stroke="#aaaaaa" points="432.76,-190.18 442.76,-186.68 432.76,-183.18 432.76,-190.18"/>
</g>
<!-- DL8&#45;&gt;C45 -->
<g id="edge26" class="edge">
<title>DL8&#45;&gt;C45</title>
<path fill="none" stroke="#888888" stroke-dasharray="5,2" d="M497.91,-186.21C521.11,-185.79 555.92,-185.15 584.92,-184.63"/>
<polygon fill="#888888" stroke="#888888" points="584.68,-188.13 594.61,-184.45 584.55,-181.13 584.68,-188.13"/>
</g>
<!-- TAO -->
<g id="node25" class="node">
<title>TAO</title>
<text text-anchor="middle" x="638.12" y="-124.08" font-family="Helvetica,sans-Serif" font-size="13.00" fill="white">TAO</text>
</g>
<!-- TAO&#45;&gt;CART -->
<g id="edge31" class="edge">
<title>TAO&#45;&gt;CART</title>
<path fill="none" stroke="#888888" stroke-dasharray="5,2" d="M665.03,-117.25C674.48,-112.69 685.23,-107.48 695,-102.68 700.91,-99.77 707.16,-96.67 713.24,-93.64"/>
<polygon fill="#888888" stroke="#888888" points="714.48,-96.93 721.86,-89.33 711.35,-90.67 714.48,-96.93"/>
</g>
<!-- GOSDT -->
<g id="node26" class="node">
<title>GOSDT</title>
<text text-anchor="middle" x="191.62" y="-144.08" font-family="Helvetica,sans-Serif" font-size="13.00" fill="white">GOSDT</text>
</g>
<!-- GOSDT&#45;&gt;DL85 -->
<g id="edge33" class="edge">
<title>GOSDT&#45;&gt;DL85</title>
<path fill="none" stroke="#888888" stroke-dasharray="5,2" d="M222.61,-158.63C239.81,-163.77 261.53,-170.26 279.75,-175.7"/>
<polygon fill="#888888" stroke="#888888" points="278.53,-178.99 289.11,-178.5 280.53,-172.28 278.53,-178.99"/>
</g>
<!-- GOSDT&#45;&gt;DL8 -->
<g id="edge34" class="edge">
<title>GOSDT&#45;&gt;DL8</title>
<path fill="none" stroke="#888888" stroke-dasharray="5,2" d="M222.82,-150.05C255.36,-150.8 308.59,-153.04 354,-159.68 380.98,-163.62 410.95,-170.66 433.68,-176.56"/>
<polygon fill="#888888" stroke="#888888" points="432.51,-179.87 443.07,-179.04 434.3,-173.1 432.51,-179.87"/>
</g>
<!-- GOSDT&#45;&gt;CART -->
<g id="edge32" class="edge">
<title>GOSDT&#45;&gt;CART</title>
<path fill="none" stroke="#888888" stroke-dasharray="5,2" d="M213.27,-131.83C248.37,-102.8 323.17,-46.52 398,-25.68 525.23,9.75 571.03,9.87 695,-35.68 704.45,-39.15 713.66,-44.82 721.72,-50.82"/>
<polygon fill="#888888" stroke="#888888" points="719.41,-53.46 729.41,-56.95 723.77,-47.98 719.41,-53.46"/>
</g>
<!-- ID3 -->
<g id="node30" class="node">
<title>ID3</title>
<text text-anchor="middle" x="750" y="-215.08" font-family="Helvetica,sans-Serif" font-size="13.00" fill="white">ID3</text>
</g>
<!-- CN2&#45;&gt;ID3 -->
<g id="edge21" class="edge">
<title>CN2&#45;&gt;ID3</title>
<path fill="none" stroke="#888888" stroke-dasharray="5,2" d="M664.89,-249C678.97,-244.26 696.67,-238.3 712.19,-233.07"/>
<polygon fill="#888888" stroke="#888888" points="713.23,-236.42 721.59,-229.91 710.99,-229.78 713.23,-236.42"/>
</g>
<!-- C45&#45;&gt;ID3 -->
<g id="edge22" class="edge">
<title>C45&#45;&gt;ID3</title>
<path fill="none" stroke="#aaaaaa" d="M680.04,-197.45C690.61,-201.02 701.93,-204.83 712.28,-208.31"/>
<polygon fill="#aaaaaa" stroke="#aaaaaa" points="711.01,-211.58 721.61,-211.45 713.24,-204.94 711.01,-211.58"/>
</g>
<!-- HS -->
<g id="node31" class="node">
<title>HS</title>
<text text-anchor="middle" x="638.12" y="-70.08" font-family="Helvetica,sans-Serif" font-size="13.00" fill="white">HS</text>
</g>
<!-- HS&#45;&gt;CART -->
<g id="edge46" class="edge">
<title>HS&#45;&gt;CART</title>
<path fill="none" stroke="#888888" stroke-dasharray="5,2" d="M664.89,-75.68C678.84,-75.68 696.32,-75.68 711.73,-75.68"/>
<polygon fill="#888888" stroke="#888888" points="711.51,-79.18 721.51,-75.68 711.51,-72.18 711.51,-79.18"/>
</g>
<!-- OneR -->
<g id="node32" class="node">
<title>OneR</title>
<text text-anchor="middle" x="471.12" y="-104.08" font-family="Helvetica,sans-Serif" font-size="13.00" fill="white">OneR</text>
</g>
<!-- OneR&#45;&gt;C45 -->
<g id="edge16" class="edge">
<title>OneR&#45;&gt;C45</title>
<path fill="none" stroke="#888888" stroke-dasharray="5,2" d="M498,-115.94C512.22,-119.76 530.02,-125.16 545.25,-131.68 565.93,-140.53 569.68,-145.6 589.25,-156.68 591.34,-157.86 593.49,-159.07 595.65,-160.3"/>
<polygon fill="#888888" stroke="#888888" points="593.44,-163.07 603.87,-164.94 596.88,-156.97 593.44,-163.07"/>
</g>
<!-- BRL -->
<g id="node33" class="node">
<title>BRL</title>
<text text-anchor="middle" x="471.12" y="-50.08" font-family="Helvetica,sans-Serif" font-size="13.00" fill="white">BRL</text>
</g>
<!-- BRL&#45;&gt;C45 -->
<g id="edge18" class="edge">
<title>BRL&#45;&gt;C45</title>
<path fill="none" stroke="#888888" stroke-dasharray="5,2" d="M498,-60.68C513.08,-64.64 531.73,-71.42 545.25,-82.68 574.66,-107.15 561.89,-129.93 589.25,-156.68 590,-157.41 590.77,-158.12 591.56,-158.83"/>
<polygon fill="#888888" stroke="#888888" points="589.39,-161.58 599.45,-164.92 593.67,-156.04 589.39,-161.58"/>
</g>
<!-- BRL&#45;&gt;CART -->
<g id="edge17" class="edge">
<title>BRL&#45;&gt;CART</title>
<path fill="none" stroke="#888888" stroke-dasharray="5,2" d="M497.96,-50.56C539.94,-43.21 625.3,-32.22 695,-48.68 700.99,-50.09 707.08,-52.28 712.9,-54.81"/>
<polygon fill="#888888" stroke="#888888" points="711.12,-57.84 721.65,-58.99 714.14,-51.52 711.12,-57.84"/>
</g>
</g>
</svg>
