<?xml version="1.0" encoding="iso-8859-1"?>
<!-- Generator: Adobe Illustrator 22.0.1, SVG Export Plug-In . SVG Version: 6.00 Build 0)  -->
<svg version="1.1" id="Ebene_1" xmlns="http://www.w3.org/2000/svg" xmlns:xlink="http://www.w3.org/1999/xlink" x="0px" y="0px"
	 viewBox="0 0 601.659 209.865" style="enable-background:new 0 0 601.659 209.865;" xml:space="preserve">
<polygon style="fill:#FFFFFF;" points="65.677,69.955 65.677,139.91 131.26,139.91 131.26,113.677 102.841,113.677 102.841,98.374 
	131.26,98.374 131.26,69.955 "/>
<polygon style="fill:#FFFFFF;" points="140.004,69.955 140.004,98.374 168.423,98.374 168.423,113.677 140.004,113.677 
	140.004,139.91 205.587,139.91 205.587,69.955 "/>
<g>
	<defs>
		<rect id="SVGID_1_" x="65.677" y="69.955" width="470.305" height="69.955"/>
	</defs>
	<clipPath id="SVGID_2_">
		<use xlink:href="#SVGID_1_"  style="overflow:visible;"/>
	</clipPath>
	<path style="clip-path:url(#SVGID_2_);fill:#FFFFFF;" d="M229.635,139.252h2.629v-12.239h14.102v12.239h2.631v-25.864h-2.631
		v11.217h-14.102v-11.217h-2.629V139.252z M258.421,132.457h13.223l2.849,6.795h3.069l-11.252-25.864h-2.557l-11.252,25.864h3.07
		L258.421,132.457z M265.031,116.457l5.591,13.589h-11.217L265.031,116.457z M285.087,113.387h-4.019v25.864h2.629v-22.357h0.075
		l9.352,22.357h1.387l9.352-22.357h0.073v22.357h2.631v-25.864h-4.019l-8.731,21.042L285.087,113.387z M317.6,113.387h-4.019v25.864
		h2.629v-22.357h0.075l9.352,22.357h1.387l9.352-22.357h0.072v22.357h2.632v-25.864h-4.019l-8.731,21.042L317.6,113.387z
		 M353.362,129.279h-9.389v2.411h9.389V129.279z M360.889,113.387h-2.632v25.864h14.685v-2.411h-12.054V113.387z M379.152,113.387
		h-2.629v25.864h2.629V113.387z M386.167,139.252h2.629v-12.019h4.895c5.26,0,8.513-2.301,8.513-6.94s-3.253-6.905-8.513-6.905
		h-7.524V139.252z M388.796,115.799h4.237c4.714,0,6.322,2.01,6.322,4.494c0,2.484-1.608,4.529-6.322,4.529h-4.237V115.799z
		 M407.135,139.252h2.629v-12.019h4.895c5.261,0,8.513-2.301,8.513-6.94s-3.252-6.905-8.513-6.905h-7.524V139.252z M409.764,115.799
		h4.239c4.712,0,6.319,2.01,6.319,4.494c0,2.484-1.607,4.529-6.319,4.529h-4.239V115.799z M442.642,115.873
		c-2.046-2.339-4.384-3.142-7.306-3.142c-4.202,0-8.366,2.339-8.366,7.342c0,9.462,13.261,5.408,13.261,12.714
		c0,3.032-2.96,4.712-5.551,4.712c-2.704,0-4.787-1.242-5.882-3.142l-2.376,1.717c1.973,2.702,5.005,3.836,8.147,3.836
		c4.091,0,8.511-2.777,8.511-7.489c0-9.317-13.261-5.626-13.261-12.604c0-3.25,2.812-4.675,5.516-4.675
		c2.193,0,3.873,0.839,5.005,2.519L442.642,115.873z M456.706,115.799h8.658v-2.411h-19.946v2.411h8.658v23.453h2.629V115.799z
		 M469.315,132.457h13.223l2.85,6.795h3.069l-11.252-25.864h-2.557l-11.252,25.864h3.069L469.315,132.457z M475.925,116.457
		l5.591,13.589h-11.215L475.925,116.457z M491.597,139.252h8.585c6.465,0,13.589-4.311,13.589-12.932
		c0-8.621-7.124-12.932-13.589-12.932h-8.585V139.252z M494.228,115.799h5.113c7.892,0,11.58,5.188,11.58,10.521
		c0,5.333-3.689,10.521-11.58,10.521h-5.113V115.799z M527.324,115.799h8.658v-2.411h-19.946v2.411h8.658v23.453h2.629V115.799z"/>
	<path style="clip-path:url(#SVGID_2_);fill:#FFFFFF;" d="M229.635,103.832h3.32V88.378h17.805v15.453h3.323V71.174h-3.323v14.161
		h-17.805V71.174h-3.32V103.832z M294.767,87.502c0-9.918-7.289-17.158-17.021-17.158c-9.733,0-17.022,7.24-17.022,17.158
		s7.289,17.16,17.022,17.16C287.479,104.662,294.767,97.42,294.767,87.502 M291.169,87.502c0,7.52-5.029,14.115-13.423,14.115
		c-8.397,0-13.424-6.595-13.424-14.115c0-7.517,5.027-14.115,13.424-14.115C286.14,73.387,291.169,79.985,291.169,87.502
		 M325.579,96.728c-2.444,3.783-5.949,4.888-9.365,4.888c-8.394,0-13.421-6.595-13.421-14.115c0-7.517,5.027-14.115,13.421-14.115
		c3.462,0,7.104,2.169,8.396,4.289l2.907-2.167c-2.86-3.644-7.242-5.166-11.303-5.166c-9.733,0-17.019,7.24-17.019,17.158
		s7.286,17.16,17.019,17.16c5.397,0,9.918-2.629,12.087-5.996L325.579,96.728z M333.881,103.832h3.323V88.378h17.805v15.453h3.32
		V71.174h-3.32v14.161h-17.805V71.174h-3.323V103.832z M385.544,74.31c-2.583-2.953-5.536-3.966-9.226-3.966
		c-5.305,0-10.563,2.951-10.563,9.27c0,11.948,16.746,6.828,16.746,16.053c0,3.829-3.737,5.949-7.013,5.949
		c-3.413,0-6.042-1.568-7.425-3.966l-2.999,2.169c2.49,3.413,6.32,4.842,10.288,4.842c5.166,0,10.748-3.506,10.748-9.455
		c0-11.763-16.746-7.104-16.746-15.914c0-4.107,3.552-5.906,6.965-5.906c2.768,0,4.891,1.061,6.32,3.184L385.544,74.31z
		 M417.004,96.728c-2.444,3.783-5.952,4.888-9.365,4.888c-8.394,0-13.423-6.595-13.423-14.115c0-7.517,5.029-14.115,13.423-14.115
		c3.459,0,7.104,2.169,8.396,4.289l2.907-2.167c-2.86-3.644-7.242-5.166-11.303-5.166c-9.733,0-17.021,7.24-17.021,17.158
		s7.289,17.16,17.021,17.16c5.397,0,9.918-2.629,12.087-5.996L417.004,96.728z M425.306,103.832h3.322V88.378h17.806v15.453h3.32
		V71.174h-3.32v14.161h-17.806V71.174h-3.322V103.832z M481.95,71.174h-3.321v20.111c0,9.411-6.135,10.331-8.625,10.331
		c-2.491,0-8.625-0.92-8.625-10.331V71.174h-3.323v20.481c0,5.443,2.169,13.007,11.948,13.007c9.779,0,11.946-7.564,11.946-13.007
		V71.174z M493.574,71.174h-3.32v32.658h18.543v-3.046h-15.222V71.174z M516.638,88.378h15.821v-3.043h-15.821V74.217h16.929v-3.043
		h-20.25v32.658h20.805v-3.046h-17.484V88.378z"/>
</g>
</svg>
